<?xml version="1.0" encoding="UTF-8"?><svg xmlns="http://www.w3.org/2000/svg" xmlns:xlink="http://www.w3.org/1999/xlink" height="694.2" preserveAspectRatio="xMidYMid meet" version="1.0" viewBox="378.9 652.9 1242.2 694.2" width="1242.2" zoomAndPan="magnify"><g><g id="change1_1"><path d="M 1062.71875 1278.53125 C 1273.148438 1175.039062 1464.078125 1156.96875 1558.808594 1155.359375 C 1593.128906 1154.769531 1621.078125 1182.789062 1620.410156 1217.101562 C 1619.769531 1249.230469 1594.160156 1275.308594 1562.039062 1276.441406 C 1285.890625 1286.210938 1014.019531 1347.070312 1014.019531 1347.070312 C 1012.988281 1315.769531 1014.019531 1308.289062 1014.019531 1308.289062 C 1018.769531 1294.890625 1062.71875 1278.53125 1062.71875 1278.53125" fill="#0071bc"/></g><g id="change1_2"><path d="M 1041.730469 1211.421875 C 1167.621094 1106.480469 1294.308594 1062.78125 1358.390625 1046.078125 C 1381.601562 1040.03125 1405.191406 1054.460938 1410.390625 1077.878906 C 1415.25 1099.800781 1402.148438 1121.730469 1380.519531 1127.789062 C 1194.570312 1179.890625 1019.949219 1265.988281 1019.949219 1265.988281 C 1014.089844 1244.898438 1013.558594 1239.648438 1013.558594 1239.648438 C 1014.578125 1229.769531 1041.730469 1211.421875 1041.730469 1211.421875" fill="#0071bc"/></g><g id="change2_1"><path d="M 937.285156 1278.53125 C 726.847656 1175.039062 535.921875 1156.96875 441.1875 1155.359375 C 406.871094 1154.769531 378.921875 1182.789062 379.59375 1217.101562 C 380.226562 1249.230469 405.839844 1275.308594 437.953125 1276.441406 C 714.113281 1286.210938 985.984375 1347.070312 985.984375 1347.070312 C 987.011719 1315.769531 985.984375 1308.289062 985.984375 1308.289062 C 981.234375 1294.890625 937.285156 1278.53125 937.285156 1278.53125" fill="#47ae6a"/></g><g id="change2_2"><path d="M 958.265625 1211.421875 C 832.382812 1106.480469 705.6875 1062.78125 641.613281 1046.078125 C 618.398438 1040.03125 594.804688 1054.460938 589.613281 1077.878906 C 584.75 1099.800781 597.851562 1121.730469 619.476562 1127.789062 C 805.429688 1179.890625 980.054688 1265.988281 980.054688 1265.988281 C 985.910156 1244.898438 986.441406 1239.648438 986.441406 1239.648438 C 985.421875 1229.769531 958.265625 1211.421875 958.265625 1211.421875" fill="#47ae6a"/></g><g id="change3_1"><path d="M 1301.210938 863.238281 L 1148.511719 941.550781 L 1148.859375 1029.429688 L 1147.859375 1029.570312 L 1147.851562 1031.578125 L 1133.839844 1031.480469 L 1000.589844 1049.71875 L 852.039062 1031.578125 L 852.023438 1029.429688 L 851.023438 1029.429688 L 851.394531 939.539062 L 699.558594 858.871094 C 699.222656 858.691406 698.898438 858.5 698.585938 858.308594 L 698.261719 902.679688 C 703.453125 903.960938 707.152344 907.289062 707.121094 911.171875 L 706.46875 1001.160156 C 706.433594 1006.101562 700.351562 1010.070312 692.886719 1010.011719 C 685.417969 1009.960938 679.390625 1005.898438 679.429688 1000.960938 L 680.082031 910.980469 C 680.113281 907.101562 683.855469 903.820312 689.070312 902.621094 L 689.488281 844.820312 C 688.292969 837.328125 691.417969 829.21875 698.949219 824.871094 L 774.546875 781.191406 L 846.199219 739.800781 L 894.832031 711.691406 L 966.488281 670.289062 L 992.03125 655.539062 C 995.078125 653.769531 998.492188 652.910156 1001.898438 652.929688 C 1005.300781 652.949219 1008.699219 653.871094 1011.71875 655.679688 L 1015.121094 657.710938 L 1086.78125 700.511719 L 1135.410156 729.558594 L 1207.058594 772.359375 L 1302.308594 829.261719 C 1315.410156 837.078125 1314.800781 856.28125 1301.210938 863.238281" fill="#3084b5"/></g><g id="change4_1"><path d="M 1000.589844 1049.71875 L 1002.121094 839.488281 L 1148.789062 892.929688 L 1147.78125 1031.75 L 1000.589844 1049.71875" fill="#45b0e5"/></g></g></svg>