<?xml version="1.0" encoding="UTF-8"?><svg xmlns="http://www.w3.org/2000/svg" xmlns:xlink="http://www.w3.org/1999/xlink" height="801.7" preserveAspectRatio="xMidYMid meet" version="1.0" viewBox="0.0 -0.0 1062.8 801.7" width="1062.8" zoomAndPan="magnify"><defs><clipPath id="a"><path d="M 0 399 L 469 399 L 469 801.660156 L 0 801.660156 Z M 0 399"/></clipPath><clipPath id="b"><path d="M 449 734 L 533 734 L 533 801.660156 L 449 801.660156 Z M 449 734"/></clipPath><clipPath id="c"><path d="M 594 399 L 1062.769531 399 L 1062.769531 801.660156 L 594 801.660156 Z M 594 399"/></clipPath><clipPath id="d"><path d="M 530 734 L 614 734 L 614 801.660156 L 530 801.660156 Z M 530 734"/></clipPath></defs><g><g clip-path="url(#a)" id="change1_1"><path d="M 465.683594 797.769531 C 465.53125 797.714844 465.421875 797.679688 465.347656 797.660156 C 465.402344 797.695312 465.515625 797.75 465.664062 797.808594 C 465.234375 799.078125 464.824219 800.371094 464.449219 801.660156 C 459.363281 800.164062 454.296875 798.726562 449.191406 797.339844 C 304.695312 757.558594 151.414062 749.613281 0 775.113281 C 27.539062 678.308594 55.09375 581.515625 82.636719 484.714844 C 94.371094 443.472656 127.007812 411.53125 168.453125 400.546875 C 170.355469 400.039062 172.261719 399.542969 174.164062 399.054688 C 138.699219 506.964844 103.234375 614.875 67.769531 722.785156 C 186.636719 707.621094 359.773438 734.878906 454.671875 783.019531 C 459.550781 785.488281 464.207031 788.011719 468.636719 790.59375 C 467.515625 792.910156 466.523438 795.304688 465.683594 797.769531" fill="#19467e"/></g><g id="change2_1"><path d="M 291.46875 334.074219 C 290.75 334.230469 290.035156 334.382812 289.320312 334.539062 C 247.394531 343.738281 213.496094 374.488281 200.125 415.273438 C 169.75 507.929688 141.089844 595.316406 109.765625 690.878906 C 322.695312 680.929688 440.527344 756.375 440.527344 756.375 C 333.25 661.933594 172.140625 662.316406 172.140625 662.316406 C 172.140625 662.316406 251.761719 440.496094 291.46875 334.074219" fill="#0979bd"/></g><g id="change3_1"><path d="M 404.527344 283.066406 C 404.28125 283.121094 404.035156 283.171875 403.789062 283.226562 C 361.835938 292.296875 327.960938 323.171875 314.589844 363.957031 C 284.984375 454.257812 257.023438 539.507812 226.480469 632.691406 C 386.554688 653.507812 454 750.222656 454 750.222656 C 420.914062 652.871094 284.75 614.058594 284.75 614.058594 C 284.75 614.058594 365.621094 387.347656 404.527344 283.066406" fill="#58bceb"/></g><g clip-path="url(#b)" id="change1_3"><path d="M 532.292969 734.523438 C 498.195312 734.523438 468.691406 754.304688 454.671875 783.019531 C 453.34375 785.730469 452.148438 788.535156 451.101562 791.414062 C 450.410156 793.359375 449.773438 795.339844 449.191406 797.339844 C 454.296875 798.726562 459.363281 800.164062 464.449219 801.660156 C 464.824219 800.371094 465.234375 799.078125 465.664062 797.808594 L 465.683594 797.769531 C 466.523438 795.304688 467.515625 792.910156 468.636719 790.59375 C 479.949219 766.8125 504.214844 750.359375 532.292969 750.359375 L 532.292969 734.523438" fill="#19467e"/></g><g id="change3_2"><path d="M 628.691406 296.46875 C 682.144531 237.976562 704.34375 171.433594 692.003906 79.472656 C 725.234375 165.78125 726.597656 261.230469 664.355469 337.761719 C 558.582031 467.804688 365.914062 486.523438 357.761719 638.066406 C 330.902344 457.347656 515.957031 419.839844 628.691406 296.46875" fill="#58bceb"/></g><g id="change4_1"><path d="M 468.859375 241.964844 C 468.859375 278.199219 493.953125 307.574219 524.910156 307.574219 C 555.867188 307.574219 580.964844 278.199219 580.964844 241.964844 C 580.964844 205.730469 555.867188 176.355469 524.910156 176.355469 C 493.953125 176.355469 468.859375 205.730469 468.859375 241.964844" fill="#f29e23"/></g><g clip-path="url(#c)" id="change1_2"><path d="M 597.089844 797.769531 C 597.242188 797.714844 597.351562 797.679688 597.425781 797.660156 C 597.371094 797.695312 597.257812 797.75 597.109375 797.808594 C 597.539062 799.078125 597.949219 800.371094 598.324219 801.660156 C 603.410156 800.164062 608.476562 798.726562 613.582031 797.339844 C 758.078125 757.558594 911.359375 749.613281 1062.769531 775.113281 C 1035.230469 678.308594 1007.679688 581.515625 980.136719 484.714844 C 968.402344 443.472656 935.769531 411.53125 894.320312 400.546875 C 892.417969 400.039062 890.515625 399.542969 888.605469 399.054688 C 924.074219 506.964844 959.539062 614.875 995.003906 722.785156 C 876.136719 707.621094 703 734.878906 608.101562 783.019531 C 603.222656 785.488281 598.566406 788.011719 594.136719 790.59375 C 595.257812 792.910156 596.25 795.304688 597.089844 797.769531" fill="#19467e"/></g><g id="change2_2"><path d="M 771.304688 334.074219 C 772.023438 334.230469 772.738281 334.382812 773.453125 334.539062 C 815.378906 343.738281 849.277344 374.488281 862.648438 415.273438 C 893.023438 507.929688 921.683594 595.316406 953.007812 690.878906 C 740.078125 680.929688 622.246094 756.375 622.246094 756.375 C 729.523438 661.933594 890.632812 662.316406 890.632812 662.316406 C 890.632812 662.316406 811.011719 440.496094 771.304688 334.074219" fill="#0979bd"/></g><g id="change3_3"><path d="M 608.011719 750.230469 C 608.011719 750.230469 675.445312 653.5 835.535156 632.691406 C 805.378906 540.730469 777.746094 456.488281 748.582031 367.496094 C 736.898438 385.109375 722.371094 400.960938 705.582031 414.589844 C 741.160156 512.871094 777.261719 614.050781 777.261719 614.050781 C 777.261719 614.050781 641.101562 652.863281 608.011719 750.230469" fill="#58bceb"/></g><g clip-path="url(#d)" id="change1_4"><path d="M 530.480469 750.359375 C 558.558594 750.359375 582.824219 766.8125 594.136719 790.59375 C 595.257812 792.910156 596.25 795.304688 597.089844 797.769531 L 597.109375 797.808594 C 597.539062 799.078125 597.949219 800.371094 598.324219 801.660156 C 603.410156 800.164062 608.476562 798.726562 613.582031 797.339844 C 613 795.339844 612.363281 793.359375 611.671875 791.414062 C 610.625 788.535156 609.429688 785.730469 608.101562 783.019531 C 594.082031 754.304688 564.578125 734.523438 530.480469 734.523438 L 530.480469 750.359375" fill="#19467e"/></g><g id="change4_2"><path d="M 662.554688 435.054688 C 712.824219 406.433594 751.273438 361.726562 765.46875 306.460938 C 769.410156 379.398438 733.164062 443.542969 674.847656 483.074219 C 576.324219 549.84375 433.046875 550.03125 378.300781 644.710938 C 400.785156 521.851562 554.503906 496.605469 662.554688 435.054688" fill="#f29e23"/></g><g id="change5_1"><path d="M 640.117188 14.925781 C 672.355469 43.195312 673.679688 49.683594 655.046875 88.304688 C 683.316406 56.0625 689.808594 54.742188 728.425781 73.375 C 696.1875 45.105469 694.863281 38.613281 713.496094 -0.00390625 C 685.226562 32.234375 678.734375 33.554688 640.117188 14.925781" fill="#a6a8ab"/></g><g id="change5_2"><path d="M 773.78125 156.601562 C 784.890625 158.117188 786.113281 159.34375 787.621094 170.453125 C 789.136719 159.34375 790.363281 158.121094 801.472656 156.613281 C 790.363281 155.097656 789.140625 153.871094 787.632812 142.761719 C 786.117188 153.871094 784.890625 155.09375 773.78125 156.601562" fill="#a6a8ab"/></g><g id="change5_3"><path d="M 579.867188 148.203125 C 602.445312 151.285156 604.933594 153.773438 607.992188 176.355469 C 611.074219 153.777344 613.566406 151.289062 636.148438 148.230469 C 613.570312 145.148438 611.082031 142.65625 608.023438 120.078125 C 604.941406 142.652344 602.449219 145.144531 579.867188 148.203125" fill="#a6a8ab"/></g></g></svg>