<?xml version="1.0" encoding="UTF-8"?><svg xmlns="http://www.w3.org/2000/svg" xmlns:xlink="http://www.w3.org/1999/xlink" height="1268.6" preserveAspectRatio="xMidYMid meet" version="1.0" viewBox="309.7 365.7 1380.5 1268.6" width="1380.5" zoomAndPan="magnify"><g><g id="change1_1"><path d="M 1138.640625 858.761719 L 1138.640625 927.128906 C 1106.558594 884.839844 1055.789062 858.078125 1000 858.078125 C 944.214844 858.078125 893.4375 884.839844 861.363281 927.128906 L 861.363281 858.761719 L 816.839844 840.320312 L 816.839844 915.191406 C 816.839844 920.25 812.738281 924.351562 807.679688 924.351562 C 802.617188 924.351562 798.515625 920.25 798.515625 915.191406 L 798.515625 803.628906 L 787.3125 803.628906 L 787.3125 828.101562 L 713.652344 797.601562 L 1000 618.339844 L 1286.351562 797.601562 Z M 1000 1047.46875 C 956.933594 1047.46875 922.023438 1012.558594 922.023438 969.5 C 922.023438 926.429688 956.933594 891.519531 1000 891.519531 C 1043.070312 891.519531 1077.980469 926.429688 1077.980469 969.5 C 1077.980469 1012.558594 1043.070312 1047.46875 1000 1047.46875 Z M 1000 569.308594 C 779.417969 569.308594 600.601562 748.128906 600.601562 968.710938 C 600.601562 1155.140625 728.335938 1311.730469 901.058594 1355.75 C 947.132812 1016.199219 726.519531 927.128906 726.519531 927.128906 C 893.777344 960.679688 968.078125 1077.210938 1000 1190.320312 C 1031.921875 1077.210938 1106.21875 960.679688 1273.480469 927.128906 C 1273.480469 927.128906 1052.871094 1016.199219 1098.941406 1355.75 C 1271.660156 1311.730469 1399.398438 1155.140625 1399.398438 968.710938 C 1399.398438 748.128906 1220.578125 569.308594 1000 569.308594" fill="#2e3192"/></g><g id="change2_1"><path d="M 678.234375 621.179688 C 680.476562 620.660156 682.695312 620.058594 684.882812 619.390625 C 687.089844 618.75 689.175781 617.921875 691.410156 617.289062 C 695.800781 615.921875 700.035156 614.339844 704.050781 612.648438 C 706.054688 611.808594 708.007812 610.941406 709.890625 610.050781 C 710.363281 609.828125 710.828125 609.609375 711.292969 609.378906 C 711.773438 609.179688 712.25 608.980469 712.722656 608.789062 C 713.664062 608.378906 714.589844 607.980469 715.503906 607.589844 C 719.140625 605.980469 722.472656 604.359375 725.4375 602.820312 C 726.917969 602.058594 728.308594 601.308594 729.59375 600.609375 C 730.871094 599.890625 732.058594 599.21875 733.1875 598.691406 C 737.625 596.449219 740.207031 594.910156 740.207031 594.910156 C 740.207031 594.910156 738.046875 592.859375 734.203125 589.738281 C 730.367188 586.640625 724.800781 582.441406 717.996094 578.320312 C 711.269531 574.320312 703.269531 570.371094 694.4375 567.46875 C 690.019531 566.03125 685.398438 564.851562 680.640625 564.050781 C 675.953125 563.359375 671.199219 563.148438 666.363281 563.410156 C 662.800781 563.601562 659.269531 564.019531 655.820312 564.648438 C 654.097656 564.960938 652.394531 565.320312 650.71875 565.730469 C 649.03125 566.128906 647.472656 566.699219 645.890625 567.25 C 639.617188 569.5 633.855469 572.429688 628.96875 575.78125 C 627.753906 576.628906 626.554688 577.460938 625.496094 578.398438 C 624.433594 579.351562 623.433594 580.308594 622.5 581.289062 C 620.628906 583.261719 619.019531 585.289062 617.703125 587.359375 C 615.082031 591.5 613.664062 595.78125 613.746094 599.96875 C 613.796875 604.140625 615.507812 608 618.222656 611.160156 C 620.96875 614.339844 624.792969 616.910156 629.449219 618.890625 C 638.847656 622.941406 651.425781 624.648438 664.578125 623.269531 C 669.175781 622.960938 673.75 622.230469 678.234375 621.179688" fill="#e7a811"/></g><g id="change2_2"><path d="M 557.472656 542.03125 C 558.84375 547.109375 561.167969 551.261719 564.203125 554.128906 C 567.273438 557.03125 570.976562 558.589844 575.488281 558.890625 C 579.976562 559.148438 584.683594 557.960938 589.375 555.570312 C 591.71875 554.371094 594.058594 552.871094 596.363281 551.109375 C 597.519531 550.21875 598.667969 549.269531 599.804688 548.25 C 600.941406 547.238281 602.148438 546.25 603.296875 545.148438 C 607.9375 540.808594 612.371094 535.5 616.398438 529.421875 C 617.417969 527.921875 618.355469 526.300781 619.367188 524.761719 C 620.371094 523.21875 621.347656 521.628906 622.289062 519.988281 C 624.171875 516.730469 625.929688 513.300781 627.53125 509.730469 C 629.707031 504.898438 631.425781 499.859375 632.871094 494.851562 C 634.390625 489.941406 635.566406 484.960938 636.484375 480.011719 C 638.308594 470.128906 639.089844 460.421875 639.339844 451.851562 C 639.628906 444.191406 639.496094 437.53125 639.226562 432.480469 C 668.113281 392.921875 695.175781 365.699219 695.175781 365.699219 C 674.082031 380.050781 650.5625 404.449219 630.679688 427.46875 C 630.03125 427.878906 629.347656 428.320312 628.632812 428.789062 C 627.117188 429.730469 625.515625 430.878906 623.816406 432.140625 C 622.105469 433.398438 620.285156 434.761719 618.375 436.210938 C 614.558594 439.121094 610.390625 442.421875 606.070312 446.03125 C 604.996094 446.941406 603.90625 447.859375 602.804688 448.789062 C 602.257812 449.261719 601.707031 449.738281 601.15625 450.21875 C 600.625 450.71875 600.089844 451.230469 599.550781 451.738281 C 597.40625 453.789062 595.253906 455.921875 593.109375 458.101562 C 588.824219 462.460938 584.585938 467.058594 580.589844 471.808594 C 578.554688 474.140625 576.765625 476.738281 574.96875 479.25 C 573.191406 481.789062 571.5 484.339844 569.914062 486.910156 C 566.738281 492.058594 563.996094 497.238281 561.855469 502.371094 C 555.925781 518.019531 554.804688 531.96875 557.472656 542.03125" fill="#e7a811"/></g><g id="change2_3"><path d="M 602.007812 702.878906 C 604.105469 701.808594 606.160156 700.660156 608.167969 699.460938 C 609.171875 698.859375 610.160156 698.25 611.140625 697.621094 L 614.179688 695.820312 C 618.195312 693.378906 622.003906 690.761719 625.558594 688.101562 C 627.347656 686.78125 629.023438 685.390625 630.730469 684.101562 C 632.472656 682.839844 634.144531 681.578125 635.742188 680.328125 C 638.9375 677.839844 641.828125 675.398438 644.378906 673.140625 C 645.667969 672.03125 646.800781 670.890625 647.972656 669.949219 C 649.128906 668.988281 650.191406 668.089844 651.148438 667.261719 C 654.972656 663.929688 657.132812 661.761719 657.132812 661.761719 C 657.132812 661.761719 654.492188 660.238281 649.925781 658.070312 C 645.355469 655.910156 638.847656 653.121094 631.050781 650.640625 C 629.101562 650.019531 627.070312 649.421875 624.972656 648.851562 C 622.90625 648.320312 620.785156 647.828125 618.601562 647.398438 C 614.238281 646.519531 609.644531 645.851562 604.910156 645.488281 C 595.464844 644.800781 585.289062 645.238281 575.953125 648.269531 C 572.460938 649.339844 569.0625 650.628906 565.789062 652.109375 C 564.15625 652.839844 562.554688 653.621094 560.988281 654.449219 C 560.203125 654.859375 559.433594 655.28125 558.671875 655.710938 C 557.9375 656.160156 557.21875 656.628906 556.507812 657.101562 C 550.824219 660.890625 545.8125 665.230469 541.78125 669.78125 C 540.78125 670.921875 539.8125 672.050781 538.960938 673.230469 C 538.140625 674.429688 537.382812 675.640625 536.691406 676.851562 C 535.3125 679.261719 534.210938 681.679688 533.414062 684.070312 C 531.824219 688.828125 531.46875 693.441406 532.589844 697.601562 C 534.953125 706 542.765625 710.96875 552.910156 712.558594 C 563.261719 714.269531 576.195312 712.878906 588.964844 708.300781 C 593.449219 706.871094 597.816406 705.019531 602.007812 702.878906" fill="#e7a811"/></g><g id="change2_4"><path d="M 484.335938 666.140625 C 488.871094 665.289062 493.269531 662.941406 497.351562 659.398438 C 499.394531 657.628906 501.355469 655.558594 503.21875 653.230469 C 504.152344 652.058594 505.058594 650.828125 505.941406 649.53125 C 506.851562 648.261719 507.789062 646.960938 508.667969 645.589844 C 512.214844 640.109375 515.320312 633.71875 517.832031 626.660156 C 518.132812 625.78125 518.4375 624.890625 518.746094 623.988281 C 519.0625 623.109375 519.378906 622.21875 519.695312 621.328125 C 520.3125 619.539062 520.890625 617.710938 521.421875 615.851562 C 522.492188 612.121094 523.394531 608.261719 524.105469 604.300781 C 525.90625 593.460938 526.425781 582.839844 525.796875 572.480469 C 525.492188 567.320312 524.9375 562.261719 524.226562 557.410156 C 523.875 554.988281 523.476562 552.609375 523.0625 550.320312 C 522.6875 548.058594 522.277344 545.859375 521.851562 543.738281 C 520.609375 537.550781 519.210938 532.03125 517.933594 527.511719 C 537.058594 474.148438 560.667969 433.21875 560.667969 433.21875 C 541.945312 454.820312 523.496094 489.398438 509.480469 519.230469 C 508.355469 520.398438 507.050781 521.769531 505.582031 523.351562 C 504.339844 524.710938 502.972656 526.199219 501.5 527.808594 C 500.027344 529.410156 498.605469 531.28125 497.046875 533.191406 C 493.960938 537.058594 490.617188 541.390625 487.203125 546.078125 C 485.492188 548.421875 483.765625 550.859375 482.042969 553.359375 C 480.351562 555.890625 478.769531 558.578125 477.15625 561.28125 C 473.960938 566.710938 470.871094 572.359375 468.058594 578.101562 C 467.359375 579.53125 466.660156 580.960938 466.015625 582.421875 C 465.398438 583.898438 464.800781 585.378906 464.230469 586.871094 C 463.082031 589.839844 462.023438 592.820312 461.074219 595.769531 C 459.179688 601.691406 457.722656 607.550781 456.851562 613.199219 C 454.761719 630.261719 457.085938 644.441406 462.234375 653.808594 C 467.578125 663.320312 475.402344 667.910156 484.335938 666.140625" fill="#e7a811"/></g><g id="change2_5"><path d="M 584.429688 744.050781 C 579.367188 742.988281 572.21875 741.78125 563.871094 741.191406 C 559.726562 740.921875 555.140625 740.71875 550.640625 740.929688 C 546.085938 741.109375 541.355469 741.550781 536.5625 742.339844 C 527.027344 743.949219 516.949219 746.820312 508.398438 752.101562 C 505.183594 754.011719 502.113281 756.121094 499.214844 758.378906 C 497.769531 759.511719 496.363281 760.679688 495.003906 761.878906 C 494.328125 762.480469 493.652344 763.078125 493.007812 763.699219 C 492.394531 764.328125 491.785156 764.96875 491.195312 765.609375 C 486.453125 770.761719 482.519531 776.300781 479.609375 781.808594 C 478.097656 784.539062 477.089844 787.359375 476.296875 790.089844 C 475.511719 792.828125 475 795.511719 474.785156 798.070312 C 474.363281 803.199219 475.117188 807.859375 477.261719 811.730469 C 481.792969 819.539062 490.699219 822.539062 501.226562 821.660156 C 502.546875 821.550781 503.878906 821.371094 505.253906 821.148438 C 506.648438 820.929688 508.066406 820.660156 509.5 820.328125 C 512.367188 819.671875 515.308594 818.789062 518.277344 817.691406 C 524.207031 815.5 530.238281 812.480469 536.023438 808.648438 C 540.101562 806.121094 544.027344 803.238281 547.667969 800.101562 C 549.496094 798.53125 551.261719 796.898438 552.96875 795.230469 C 553.820312 794.390625 554.65625 793.539062 555.476562 792.679688 L 558.054688 790.148438 C 561.453125 786.761719 564.597656 783.25 567.484375 779.738281 C 568.957031 778.011719 570.234375 776.199219 571.679688 774.539062 C 573.101562 772.871094 574.453125 771.210938 575.734375 769.578125 C 578.296875 766.328125 580.574219 763.210938 582.554688 760.351562 C 583.042969 759.628906 583.519531 758.929688 583.980469 758.261719 C 584.472656 757.601562 584.949219 756.960938 585.40625 756.339844 C 586.324219 755.109375 587.152344 753.960938 587.898438 752.898438 C 590.878906 748.671875 592.488281 745.980469 592.488281 745.980469 C 592.488281 745.980469 589.496094 745.101562 584.429688 744.050781" fill="#e7a811"/></g><g id="change2_6"><path d="M 391.242188 778.328125 C 392.050781 779.671875 392.886719 780.929688 393.757812 782.109375 C 394.644531 783.289062 395.585938 784.398438 396.53125 785.421875 C 404.140625 793.570312 413.152344 796.238281 421.5 792.238281 C 425.800781 790.28125 429.628906 786.859375 432.835938 782.339844 C 434.441406 780.078125 435.894531 777.53125 437.1875 774.761719 C 438.484375 771.980469 439.5625 768.941406 440.722656 765.800781 C 442.929688 759.480469 444.46875 752.351562 445.261719 744.710938 C 445.347656 743.761719 445.433594 742.789062 445.519531 741.820312 C 445.621094 740.871094 445.71875 739.898438 445.820312 738.941406 C 445.996094 737 446.125 735.039062 446.207031 733.050781 C 446.363281 729.070312 446.324219 725.011719 446.074219 720.878906 C 445.230469 709.640625 443.226562 698.941406 440.058594 688.738281 C 438.5 683.660156 436.71875 678.75 434.835938 674.078125 C 432.902344 669.390625 431.132812 665.089844 429.222656 661.039062 C 425.464844 652.980469 421.722656 646.238281 418.910156 641.519531 C 418.746094 641.25 418.601562 641.011719 418.445312 640.75 C 425.421875 587.488281 438.257812 545.71875 438.257812 545.71875 C 423.757812 572.96875 412.949219 614.859375 405.945312 648.539062 C 405.664062 649.058594 405.390625 649.558594 405.09375 650.101562 C 404.570312 651.089844 404.027344 652.109375 403.46875 653.171875 C 402.960938 654.261719 402.433594 655.378906 401.894531 656.53125 C 399.757812 661.140625 397.480469 666.289062 395.214844 671.800781 C 394.078125 674.558594 392.949219 677.410156 391.835938 680.328125 C 390.703125 683.238281 389.824219 686.339844 388.855469 689.421875 C 386.984375 695.621094 385.273438 702.019531 383.863281 708.429688 C 383.515625 710.039062 383.160156 711.628906 382.878906 713.25 C 382.621094 714.878906 382.390625 716.511719 382.179688 718.128906 C 381.753906 721.371094 381.421875 724.601562 381.191406 727.78125 C 380.742188 734.160156 380.675781 740.339844 381.222656 746.210938 C 382.265625 754.980469 384.222656 762.769531 386.84375 769.359375 C 388.152344 772.660156 389.628906 775.648438 391.242188 778.328125" fill="#e7a811"/></g><g id="change2_7"><path d="M 477.273438 939.550781 C 482.328125 937.820312 487.859375 935.070312 493.222656 931.460938 C 498.589844 927.839844 503.851562 923.378906 508.675781 918.191406 C 512.054688 914.691406 515.304688 910.898438 518.148438 906.910156 C 519.582031 904.921875 520.941406 902.878906 522.230469 900.808594 C 522.871094 899.78125 523.496094 898.738281 524.105469 897.691406 L 526.046875 894.570312 C 528.601562 890.390625 530.875 886.160156 532.886719 882 C 533.378906 880.960938 533.867188 879.921875 534.351562 878.890625 L 535.046875 877.359375 L 535.8125 875.851562 C 536.816406 873.851562 537.757812 871.890625 538.636719 869.96875 C 540.390625 866.140625 541.894531 862.5 543.160156 859.199219 C 543.757812 857.53125 544.46875 856.011719 545.070312 854.558594 C 545.679688 853.121094 546.222656 851.769531 546.707031 850.550781 C 548.636719 845.640625 549.582031 842.601562 549.582031 842.601562 C 549.582031 842.601562 546.390625 842.429688 541.101562 842.589844 C 535.808594 842.75 528.410156 843.238281 519.964844 844.648438 C 515.765625 845.359375 511.199219 846.269531 506.695312 847.53125 C 502.210938 848.800781 497.613281 850.371094 493.035156 852.308594 C 488.460938 854.238281 483.90625 856.539062 479.511719 859.261719 C 477.351562 860.621094 475.089844 862.058594 473.136719 863.660156 C 471.144531 865.261719 469.214844 866.960938 467.363281 868.769531 C 464.628906 871.460938 462.085938 874.300781 459.753906 877.238281 C 458.585938 878.71875 457.46875 880.21875 456.40625 881.738281 C 455.886719 882.5 455.347656 883.261719 454.871094 884.03125 C 454.410156 884.808594 453.960938 885.589844 453.527344 886.371094 C 450.0625 892.640625 447.496094 899.109375 445.941406 905.289062 C 445.089844 908.371094 444.839844 911.429688 444.691406 914.339844 C 444.578125 917.25 444.726562 920.03125 445.136719 922.628906 C 445.992188 927.828125 447.808594 932.269531 450.988281 935.589844 C 457.414062 942.238281 467.011719 943.011719 477.273438 939.550781" fill="#e7a811"/></g><g id="change2_8"><path d="M 339.347656 893.949219 C 342.519531 902.449219 346.367188 909.75 350.585938 915.679688 C 354.8125 921.609375 359.34375 926.179688 364.199219 929.320312 C 373.773438 935.570312 383.390625 935.988281 390.722656 929.949219 C 394.421875 926.921875 397.472656 922.578125 399.539062 917.28125 C 400.582031 914.628906 401.410156 911.75 402.019531 908.660156 C 402.660156 905.578125 402.929688 902.28125 403.328125 898.871094 C 403.984375 892.03125 403.789062 884.558594 402.714844 876.75 C 402.570312 875.769531 402.421875 874.789062 402.277344 873.800781 C 402.140625 872.820312 402.003906 871.839844 401.863281 870.851562 C 401.574219 868.878906 401.226562 866.890625 400.824219 864.890625 C 400.019531 860.890625 398.992188 856.839844 397.742188 852.789062 C 396.894531 850.039062 395.933594 847.339844 394.875 844.679688 C 393.773438 842.011719 392.820312 839.441406 391.652344 836.890625 C 389.378906 831.789062 386.777344 826.878906 384 822.179688 C 381.21875 817.488281 378.261719 813.011719 375.261719 808.800781 C 372.28125 804.609375 369.4375 800.730469 366.570312 797.148438 C 361.417969 790.671875 356.550781 785.28125 352.753906 781.320312 C 339.910156 723.789062 338.328125 673.75 338.328125 673.75 C 333.226562 705.5 337.070312 751.019531 341.601562 785.761719 C 341.589844 785.800781 341.578125 785.839844 341.566406 785.878906 C 341.0625 787.761719 340.507812 789.828125 339.910156 792.058594 C 339.335938 794.289062 338.691406 796.671875 338.222656 799.25 C 337.203125 804.378906 336.175781 810.078125 335.25 816.148438 C 333.152344 828.21875 332.558594 842.039062 332.773438 855.539062 C 332.820312 857.230469 332.84375 858.910156 332.964844 860.589844 C 333.105469 862.28125 333.265625 863.96875 333.449219 865.640625 C 333.816406 868.988281 334.265625 872.300781 334.808594 875.539062 C 335.925781 882.019531 337.316406 888.210938 339.347656 893.949219" fill="#e7a811"/></g><g id="change2_9"><path d="M 442.894531 1033.058594 C 442.90625 1034.691406 442.917969 1036.289062 443.089844 1037.839844 C 443.285156 1039.390625 443.539062 1040.898438 443.84375 1042.359375 C 444.460938 1045.28125 445.300781 1048 446.359375 1050.480469 C 448.480469 1055.429688 451.480469 1059.371094 455.347656 1061.890625 C 463.386719 1066.898438 473.121094 1065.28125 482.445312 1059.308594 C 487.078125 1056.328125 491.9375 1052.230469 496.335938 1047.339844 C 500.773438 1042.441406 504.871094 1036.71875 508.386719 1030.410156 C 510.988281 1026.109375 513.195312 1021.570312 515.058594 1016.941406 C 516.96875 1012.300781 518.277344 1007.558594 519.910156 1002.808594 C 521.414062 998.070312 522.628906 993.339844 523.597656 988.75 C 523.824219 987.601562 524.054688 986.460938 524.28125 985.328125 C 524.542969 984.199219 524.804688 983.078125 525.0625 981.96875 C 525.570312 979.761719 526.019531 977.589844 526.417969 975.488281 C 527.214844 971.28125 527.8125 967.328125 528.253906 963.761719 C 528.875 960.210938 529.390625 957.03125 529.738281 954.378906 C 530.445312 949.070312 530.636719 945.839844 530.636719 945.839844 C 530.636719 945.839844 527.425781 946.429688 522.207031 947.851562 C 516.988281 949.269531 509.761719 951.53125 501.710938 954.949219 C 497.683594 956.660156 493.453125 958.660156 489.171875 960.988281 C 484.960938 963.320312 480.824219 965.988281 476.738281 969.019531 C 472.664062 972.039062 468.707031 975.421875 465.007812 979.179688 C 463.160156 981.058594 461.378906 983.03125 459.679688 985.101562 C 458.085938 987.160156 456.589844 989.320312 455.199219 991.570312 C 451.125 998.21875 447.828125 1005.339844 445.734375 1012.421875 C 443.847656 1019.5 442.90625 1026.539062 442.894531 1033.058594" fill="#e7a811"/></g><g id="change2_10"><path d="M 313.53125 991.03125 C 314.804688 997.78125 316.332031 1004.628906 318.148438 1011.351562 C 319.832031 1018.070312 322.421875 1024.628906 325.0625 1030.828125 C 327.757812 1037.03125 330.761719 1042.859375 334.09375 1048.089844 C 339.347656 1055.789062 345.007812 1062.109375 350.679688 1066.980469 C 356.390625 1071.839844 361.984375 1075.28125 367.550781 1077.199219 C 378.632812 1081.039062 388.285156 1079.070312 394.0625 1071.238281 C 397.105469 1067.289062 398.960938 1062.230469 399.714844 1056.449219 C 400.09375 1053.550781 400.191406 1050.480469 400.027344 1047.261719 C 399.945312 1045.648438 399.796875 1044 399.578125 1042.320312 C 399.386719 1040.648438 399.230469 1038.929688 398.953125 1037.191406 C 397.90625 1030.21875 395.851562 1022.828125 392.847656 1015.320312 C 390.050781 1007.800781 386.574219 1000.128906 382.046875 992.671875 C 380.527344 990.140625 378.898438 987.679688 377.199219 985.289062 C 375.597656 982.890625 373.910156 980.570312 372.15625 978.300781 C 368.640625 973.78125 364.851562 969.5 360.933594 965.488281 C 357.03125 961.480469 352.945312 957.730469 348.996094 954.261719 C 345.125 950.800781 341.265625 947.609375 337.566406 944.730469 C 330.171875 938.96875 323.425781 934.429688 318.527344 931.339844 C 313.632812 928.261719 310.578125 926.648438 310.578125 926.648438 C 310.578125 926.648438 310.191406 931.511719 309.949219 939.53125 C 309.839844 943.550781 309.726562 948.351562 309.792969 953.71875 C 310.039062 959.109375 310.414062 965.058594 310.980469 971.359375 C 311.265625 974.511719 311.59375 977.738281 311.980469 981.03125 C 312.179688 982.671875 312.355469 984.328125 312.617188 986 C 312.917969 987.660156 313.222656 989.339844 313.53125 991.03125" fill="#e7a811"/></g><g id="change2_11"><path d="M 473.746094 1166.789062 C 475.050781 1169.539062 476.605469 1172.03125 478.277344 1174.230469 C 481.636719 1178.609375 485.617188 1181.78125 490.101562 1183.328125 C 494.550781 1184.898438 499.226562 1184.640625 503.667969 1182.988281 C 508.144531 1181.328125 512.328125 1178.308594 516.34375 1174.171875 C 520.347656 1170.019531 524.039062 1164.808594 527.210938 1158.871094 C 528.796875 1155.898438 530.25 1152.75 531.539062 1149.449219 C 532.207031 1147.789062 532.746094 1146.128906 533.398438 1144.378906 C 534.03125 1142.640625 534.628906 1140.859375 535.179688 1139.050781 C 536.664062 1134.160156 537.699219 1129.128906 538.359375 1124.078125 C 538.523438 1122.820312 538.667969 1121.550781 538.785156 1120.289062 L 538.949219 1118.398438 L 539.183594 1116.480469 C 539.476562 1113.921875 539.691406 1111.371094 539.835938 1108.839844 C 540.125 1103.78125 540.105469 1098.808594 539.925781 1094.03125 C 540.003906 1089.179688 539.863281 1084.53125 539.589844 1080.179688 C 538.835938 1071.519531 538.460938 1063.890625 537.78125 1058.480469 C 537.148438 1053.078125 536.519531 1049.839844 536.519531 1049.839844 C 536.519531 1049.839844 533.480469 1051.199219 528.652344 1053.859375 C 523.824219 1056.53125 517.210938 1060.511719 510.070312 1065.839844 C 506.503906 1068.511719 502.804688 1071.519531 499.128906 1074.859375 C 497.292969 1076.539062 495.464844 1078.289062 493.664062 1080.140625 C 491.867188 1081.980469 490.230469 1083.878906 488.570312 1085.871094 C 485.292969 1089.859375 482.210938 1094.179688 479.484375 1098.800781 C 478.121094 1101.109375 476.851562 1103.5 475.683594 1105.960938 C 474.550781 1108.410156 473.386719 1110.96875 472.632812 1113.53125 C 470.238281 1121.121094 468.871094 1128.949219 468.441406 1136.519531 C 468.144531 1140.339844 468.429688 1143.980469 468.824219 1147.53125 C 469.238281 1151.070312 469.863281 1154.488281 470.6875 1157.71875 C 471.515625 1160.949219 472.539062 1163.988281 473.746094 1166.789062" fill="#e7a811"/></g><g id="change2_12"><path d="M 348.230469 1178.011719 L 349.769531 1180.160156 C 350.804688 1181.578125 351.851562 1182.980469 352.914062 1184.351562 C 357.160156 1189.839844 361.621094 1194.878906 366.261719 1199.25 C 367.976562 1200.859375 369.695312 1202.390625 371.414062 1203.820312 C 373.117188 1205.25 374.96875 1206.539062 376.726562 1207.769531 C 380.285156 1210.210938 383.800781 1212.289062 387.234375 1214.011719 C 394.105469 1217.449219 400.640625 1219.441406 406.515625 1220.039062 C 412.382812 1220.640625 417.738281 1219.808594 421.964844 1217.730469 C 426.21875 1215.628906 429.402344 1212.28125 431.472656 1207.609375 C 433.507812 1202.949219 434.078125 1197.480469 433.375 1191.558594 C 433.03125 1188.601562 432.324219 1185.539062 431.390625 1182.371094 C 430.554688 1179.171875 429.429688 1175.890625 428.023438 1172.558594 C 426.617188 1169.238281 424.933594 1165.871094 422.992188 1162.5 C 421.0625 1159.121094 418.769531 1155.769531 416.578125 1152.328125 C 412.042969 1145.511719 406.535156 1138.789062 400.179688 1132.480469 C 397.972656 1130.359375 395.960938 1128.261719 393.734375 1126.28125 C 391.546875 1124.289062 389.28125 1122.390625 386.964844 1120.570312 C 382.328125 1116.929688 377.484375 1113.609375 372.578125 1110.570312 C 370.144531 1109.050781 367.628906 1107.621094 365.238281 1106.230469 C 362.859375 1104.839844 360.480469 1103.519531 358.121094 1102.261719 C 353.402344 1099.761719 348.765625 1097.519531 344.367188 1095.550781 C 335.574219 1091.609375 327.734375 1088.71875 322.09375 1086.828125 C 316.457031 1084.949219 313.019531 1084.078125 313.019531 1084.078125 C 313.019531 1084.078125 313.847656 1089.019531 315.621094 1097.078125 C 317.433594 1105.128906 319.902344 1116.359375 324.40625 1128.570312 C 326.550781 1134.699219 328.972656 1141.121094 331.660156 1147.589844 C 334.609375 1153.980469 337.875 1160.410156 341.371094 1166.628906 C 343.121094 1169.75 344.933594 1172.808594 346.808594 1175.789062 L 348.230469 1178.011719" fill="#e7a811"/></g><g id="change2_13"><path d="M 527.027344 1272.230469 C 533.785156 1284.039062 542.789062 1292.109375 552.71875 1292.730469 C 562.511719 1293.511719 570.71875 1287.25 576.546875 1277.128906 C 579.484375 1272.058594 581.734375 1266.101562 583.449219 1259.449219 C 585.238281 1252.738281 586.363281 1245.441406 586.632812 1237.890625 C 587.75 1217.171875 581.804688 1195.851562 577.019531 1178.648438 C 576.363281 1176.539062 575.691406 1174.5 575.015625 1172.558594 C 574.421875 1170.578125 573.859375 1168.679688 573.28125 1166.898438 C 572.136719 1163.320312 571.019531 1160.191406 570.035156 1157.589844 C 569.527344 1156.300781 569.074219 1155.128906 568.671875 1154.109375 C 568.261719 1153.101562 567.988281 1152.191406 567.710938 1151.46875 C 567.171875 1150.03125 566.875 1149.238281 566.875 1149.238281 C 566.875 1149.238281 564.136719 1151.339844 559.890625 1155.171875 C 555.582031 1159.039062 550.066406 1164.519531 544.25 1171.519531 C 541.351562 1175.019531 538.410156 1178.878906 535.574219 1183.070312 C 534.160156 1185.171875 532.773438 1187.351562 531.429688 1189.609375 C 530.097656 1191.859375 528.765625 1194.21875 527.640625 1196.570312 C 525.332031 1201.308594 523.304688 1206.328125 521.707031 1211.570312 C 520.90625 1214.191406 520.214844 1216.871094 519.648438 1219.589844 C 519.363281 1220.949219 519.113281 1222.328125 518.894531 1223.710938 C 518.683594 1225.089844 518.574219 1226.441406 518.464844 1227.820312 C 517.894531 1235.941406 518.296875 1244.109375 519.761719 1251.691406 C 521.40625 1259.160156 523.910156 1266.171875 527.027344 1272.230469" fill="#e7a811"/></g><g id="change2_14"><path d="M 457.960938 1348.578125 C 465.644531 1350.328125 472.785156 1350.609375 478.804688 1349.75 C 490.882812 1347.988281 498.871094 1341.441406 500.480469 1331.28125 C 501.910156 1321.199219 497.410156 1309 488.25 1297.371094 C 483.917969 1291.390625 478.445312 1285.5 472.03125 1279.949219 C 465.800781 1274.289062 458.816406 1268.859375 450.980469 1264.089844 C 449.667969 1263.28125 448.300781 1262.511719 446.988281 1261.738281 C 445.6875 1260.960938 444.367188 1260.210938 443.035156 1259.480469 C 440.375 1258.03125 437.664062 1256.679688 434.914062 1255.421875 C 429.425781 1252.910156 423.800781 1250.761719 418.1875 1248.921875 C 407.117188 1245.160156 396.289062 1242.488281 386.527344 1240.691406 C 376.824219 1238.871094 368.210938 1237.910156 362.296875 1237.328125 C 356.316406 1236.761719 352.726562 1236.710938 352.726562 1236.710938 C 352.726562 1236.710938 353.210938 1237.890625 354.089844 1240.058594 C 354.554688 1241.128906 355.066406 1242.460938 355.785156 1243.96875 C 356.515625 1245.480469 357.347656 1247.191406 358.269531 1249.089844 C 360.144531 1252.890625 362.441406 1257.390625 365.121094 1262.378906 C 366.46875 1264.871094 367.890625 1267.488281 369.4375 1270.179688 C 371.070312 1272.839844 372.792969 1275.578125 374.605469 1278.378906 C 388.566406 1301.03125 410.578125 1326.058594 433.488281 1338.898438 C 442.085938 1343.570312 450.363281 1346.761719 457.960938 1348.578125" fill="#e7a811"/></g><g id="change2_15"><path d="M 591.054688 1333.828125 C 591.492188 1335.878906 591.996094 1337.898438 592.644531 1339.808594 C 593.894531 1343.671875 595.371094 1347.410156 597.035156 1350.980469 C 597.871094 1352.761719 598.746094 1354.511719 599.667969 1356.199219 C 600.589844 1357.890625 601.527344 1359.558594 602.605469 1361.070312 C 604.714844 1364.128906 606.957031 1366.96875 609.296875 1369.539062 C 611.636719 1372.121094 614.066406 1374.421875 616.550781 1376.398438 C 619.121094 1378.28125 621.738281 1379.851562 624.351562 1381.058594 C 629.582031 1383.480469 634.792969 1384.46875 639.671875 1383.710938 C 649.636719 1381.96875 656.230469 1373.71875 659.46875 1362.308594 C 661.0625 1356.640625 662.03125 1349.941406 662.085938 1342.941406 C 662.121094 1339.421875 661.953125 1335.808594 661.566406 1332.140625 C 661.382812 1330.300781 661.113281 1328.46875 660.839844 1326.589844 C 660.585938 1324.679688 660.28125 1322.761719 659.917969 1320.839844 C 658.941406 1315.628906 657.484375 1310.53125 655.675781 1305.609375 C 653.96875 1300.570312 652.046875 1295.578125 649.832031 1290.871094 C 649.28125 1289.699219 648.71875 1288.53125 648.144531 1287.378906 L 647.269531 1285.660156 L 646.453125 1283.898438 C 645.355469 1281.570312 644.21875 1279.300781 643.054688 1277.109375 C 640.757812 1272.691406 638.191406 1268.691406 636.058594 1264.679688 C 633.832031 1260.75 631.617188 1257.179688 629.542969 1254.011719 C 628.472656 1252.460938 627.554688 1250.910156 626.683594 1249.480469 C 625.804688 1248.058594 624.972656 1246.761719 624.203125 1245.578125 C 621.121094 1240.871094 619.046875 1238.171875 619.046875 1238.171875 C 619.046875 1238.171875 616.851562 1240.890625 613.597656 1245.660156 C 610.34375 1250.441406 606.039062 1257.289062 601.890625 1265.660156 C 599.839844 1269.828125 597.71875 1274.460938 595.980469 1279.238281 C 594.238281 1284.03125 592.691406 1289.121094 591.484375 1294.421875 C 590.285156 1299.71875 589.40625 1305.25 589.042969 1310.878906 C 588.804688 1316.390625 589.050781 1322.019531 589.910156 1327.648438 C 590.226562 1329.730469 590.609375 1331.789062 591.054688 1333.828125" fill="#e7a811"/></g><g id="change2_16"><path d="M 539.878906 1460.570312 C 542.203125 1461.03125 544.527344 1461.371094 546.773438 1461.648438 C 551.273438 1462.199219 555.558594 1462.429688 559.589844 1462.359375 C 567.667969 1462.199219 574.625 1460.960938 580.453125 1458.539062 C 592.0625 1453.75 598.355469 1445.269531 597.375 1434.871094 C 596.972656 1429.550781 594.828125 1424.179688 591.285156 1419.03125 C 589.511719 1416.449219 587.382812 1413.929688 584.941406 1411.480469 C 582.59375 1408.921875 579.9375 1406.429688 577 1404.050781 C 574.066406 1401.648438 570.851562 1399.359375 567.390625 1397.179688 C 565.664062 1396.101562 563.914062 1395.011719 562.132812 1393.898438 C 560.34375 1392.808594 558.496094 1391.761719 556.59375 1390.738281 C 552.789062 1388.699219 548.773438 1386.808594 544.578125 1385.078125 C 542.488281 1384.230469 540.378906 1383.378906 538.257812 1382.519531 C 536.132812 1381.679688 533.96875 1380.890625 531.765625 1380.148438 C 525.800781 1378.148438 519.683594 1376.660156 513.53125 1375.558594 C 507.5 1374.359375 501.460938 1373.519531 495.480469 1372.988281 C 489.503906 1372.460938 483.601562 1372.230469 477.917969 1372.210938 C 472.230469 1372.191406 466.9375 1372.230469 461.886719 1372.488281 C 451.828125 1372.960938 443.15625 1373.96875 437.007812 1374.878906 C 430.859375 1375.78125 427.246094 1376.589844 427.246094 1376.589844 C 427.246094 1376.589844 430.371094 1380.859375 435.863281 1387.609375 C 437.25 1389.289062 438.773438 1391.128906 440.414062 1393.109375 C 442.066406 1395.078125 443.847656 1397.191406 445.878906 1399.289062 C 449.871094 1403.550781 454.375 1408.179688 459.277344 1412.949219 C 479.101562 1431.859375 506.550781 1452 532.828125 1458.820312 C 535.222656 1459.488281 537.574219 1460.070312 539.878906 1460.570312" fill="#e7a811"/></g><g id="change2_17"><path d="M 682.933594 1407.5 C 684.605469 1411.410156 686.527344 1415.199219 688.648438 1418.820312 C 689.710938 1420.628906 690.816406 1422.390625 691.972656 1424.109375 C 693.152344 1425.78125 694.402344 1427.351562 695.675781 1428.898438 C 698.226562 1431.988281 700.921875 1434.859375 703.703125 1437.480469 C 705.09375 1438.789062 706.503906 1440.039062 707.929688 1441.21875 C 709.355469 1442.308594 710.800781 1443.328125 712.246094 1444.28125 C 723.777344 1452.070312 736.214844 1454.101562 745.191406 1449.679688 C 749.675781 1447.519531 753.015625 1443.800781 755.175781 1439.230469 C 757.351562 1434.640625 758.367188 1429.171875 758.511719 1423.109375 C 758.664062 1417.03125 757.90625 1410.410156 756.367188 1403.730469 C 755.617188 1400.351562 754.742188 1396.859375 753.648438 1393.441406 C 753.105469 1391.730469 752.515625 1390.019531 751.878906 1388.328125 C 751.238281 1386.648438 750.621094 1384.859375 749.921875 1383.148438 C 748.988281 1380.820312 747.957031 1378.558594 746.847656 1376.378906 L 745.988281 1374.738281 L 744.976562 1372.960938 C 744.289062 1371.78125 743.582031 1370.621094 742.859375 1369.46875 C 739.976562 1364.851562 736.71875 1360.609375 733.425781 1356.421875 C 730.199219 1352.140625 726.808594 1348.128906 723.382812 1344.429688 C 721.632812 1342.628906 720.039062 1340.671875 718.390625 1338.890625 C 716.75 1337.089844 715.117188 1335.378906 713.511719 1333.738281 C 711.90625 1332.109375 710.324219 1330.558594 708.785156 1329.101562 C 707.316406 1327.550781 705.886719 1326.089844 704.511719 1324.730469 C 701.769531 1322.011719 699.253906 1319.679688 697.117188 1317.78125 C 694.9375 1315.929688 693.347656 1314.25 692.15625 1313.21875 C 690.972656 1312.160156 690.324219 1311.589844 690.324219 1311.589844 C 690.324219 1311.589844 688.78125 1314.828125 686.664062 1320.398438 C 685.605469 1323.179688 684.40625 1326.550781 683.199219 1330.390625 C 682.015625 1334.210938 680.882812 1338.441406 679.855469 1343.058594 C 677.828125 1352.269531 676.273438 1363.039062 676.414062 1374.191406 C 676.542969 1379.691406 677.066406 1385.308594 678.097656 1390.941406 C 679.140625 1396.550781 680.617188 1402.261719 682.933594 1407.5" fill="#e7a811"/></g><g id="change2_18"><path d="M 688.84375 1486.53125 C 687.046875 1485.699219 685.179688 1484.921875 683.265625 1484.171875 C 681.421875 1483.378906 679.519531 1482.621094 677.5625 1481.921875 C 673.652344 1480.511719 669.527344 1479.269531 665.222656 1478.230469 C 663.074219 1477.699219 660.863281 1477.238281 658.644531 1476.789062 C 656.453125 1476.300781 654.222656 1475.851562 651.957031 1475.460938 C 647.425781 1474.671875 642.753906 1474.101562 637.980469 1473.75 C 631.46875 1473.359375 625.164062 1473.179688 618.839844 1473.5 C 612.527344 1473.800781 606.265625 1474.511719 600.15625 1475.488281 C 588.054688 1477.300781 576.664062 1480.03125 566.699219 1483.039062 C 561.738281 1484.519531 557.125 1486.078125 553.0625 1487.5 C 549.027344 1488.898438 545.480469 1490.25 542.550781 1491.421875 C 536.695312 1493.75 533.316406 1495.410156 533.316406 1495.410156 C 533.316406 1495.410156 534.347656 1496.289062 536.234375 1497.878906 C 538.152344 1499.429688 540.839844 1501.808594 544.476562 1504.398438 C 548.078125 1507.03125 552.425781 1510.128906 557.363281 1513.488281 C 559.832031 1515.171875 562.449219 1516.921875 565.191406 1518.699219 C 568.003906 1520.390625 570.941406 1522.121094 573.992188 1523.859375 C 577.039062 1525.601562 580.195312 1527.351562 583.4375 1529.078125 C 586.695312 1530.800781 589.96875 1532.601562 593.464844 1534.121094 C 600.390625 1537.269531 607.570312 1540.261719 614.804688 1542.898438 C 622.101562 1545.441406 629.59375 1547.421875 636.863281 1549 C 638.6875 1549.390625 640.496094 1549.738281 642.300781 1550.058594 L 644.992188 1550.519531 C 645.949219 1550.660156 646.90625 1550.800781 647.859375 1550.941406 C 651.695312 1551.460938 655.453125 1551.820312 659.105469 1552.011719 C 661.8125 1552.121094 664.414062 1552.230469 666.992188 1552.121094 C 669.570312 1552.03125 672.0625 1551.859375 674.476562 1551.609375 C 679.304688 1551.109375 683.773438 1550.378906 687.90625 1549.28125 C 696.191406 1547.019531 702.984375 1543.808594 708.113281 1539.960938 C 713.242188 1536.089844 716.738281 1531.519531 718.425781 1526.761719 C 720.121094 1521.960938 720.003906 1517.011719 718.011719 1511.851562 C 713.976562 1501.601562 703.109375 1493.300781 688.84375 1486.53125" fill="#e7a811"/></g><g id="change2_19"><path d="M 1321.769531 621.179688 C 1319.53125 620.660156 1317.308594 620.058594 1315.121094 619.390625 C 1312.910156 618.75 1310.820312 617.921875 1308.589844 617.289062 C 1304.199219 615.921875 1299.960938 614.339844 1295.949219 612.648438 C 1293.941406 611.808594 1291.988281 610.941406 1290.109375 610.050781 C 1289.640625 609.828125 1289.171875 609.609375 1288.710938 609.378906 C 1288.230469 609.179688 1287.75 608.980469 1287.28125 608.789062 C 1286.339844 608.378906 1285.410156 607.980469 1284.5 607.589844 C 1280.859375 605.980469 1277.53125 604.359375 1274.558594 602.820312 C 1273.078125 602.058594 1271.691406 601.308594 1270.410156 600.609375 C 1269.128906 599.890625 1267.941406 599.21875 1266.808594 598.691406 C 1262.371094 596.449219 1259.789062 594.910156 1259.789062 594.910156 C 1259.789062 594.910156 1261.949219 592.859375 1265.789062 589.738281 C 1269.628906 586.640625 1275.199219 582.441406 1282.011719 578.320312 C 1288.730469 574.320312 1296.730469 570.371094 1305.558594 567.46875 C 1309.980469 566.03125 1314.601562 564.851562 1319.359375 564.050781 C 1324.050781 563.359375 1328.800781 563.148438 1333.640625 563.410156 C 1337.199219 563.601562 1340.730469 564.019531 1344.179688 564.648438 C 1345.898438 564.960938 1347.601562 565.320312 1349.28125 565.730469 C 1350.96875 566.128906 1352.53125 566.699219 1354.109375 567.25 C 1360.378906 569.5 1366.148438 572.429688 1371.03125 575.78125 C 1372.238281 576.628906 1373.441406 577.460938 1374.511719 578.398438 C 1375.570312 579.351562 1376.558594 580.308594 1377.5 581.289062 C 1379.371094 583.261719 1380.980469 585.289062 1382.300781 587.359375 C 1384.921875 591.5 1386.339844 595.78125 1386.25 599.96875 C 1386.199219 604.140625 1384.488281 608 1381.78125 611.160156 C 1379.03125 614.339844 1375.210938 616.910156 1370.550781 618.890625 C 1361.148438 622.941406 1348.578125 624.648438 1335.421875 623.269531 C 1330.828125 622.960938 1326.25 622.230469 1321.769531 621.179688" fill="#e7a811"/></g><g id="change2_20"><path d="M 1442.53125 542.03125 C 1441.160156 547.109375 1438.828125 551.261719 1435.800781 554.128906 C 1432.730469 557.03125 1429.03125 558.589844 1424.511719 558.890625 C 1420.019531 559.148438 1415.320312 557.960938 1410.628906 555.570312 C 1408.28125 554.371094 1405.941406 552.871094 1403.628906 551.109375 C 1402.480469 550.21875 1401.328125 549.269531 1400.199219 548.25 C 1399.058594 547.238281 1397.851562 546.25 1396.699219 545.148438 C 1392.058594 540.808594 1387.628906 535.5 1383.601562 529.421875 C 1382.578125 527.921875 1381.640625 526.300781 1380.628906 524.761719 C 1379.628906 523.21875 1378.648438 521.628906 1377.710938 519.988281 C 1375.828125 516.730469 1374.070312 513.300781 1372.46875 509.730469 C 1370.289062 504.898438 1368.570312 499.859375 1367.128906 494.851562 C 1365.609375 489.941406 1364.429688 484.960938 1363.519531 480.011719 C 1361.691406 470.128906 1360.910156 460.421875 1360.660156 451.851562 C 1360.371094 444.191406 1360.5 437.53125 1360.769531 432.480469 C 1331.890625 392.921875 1304.820312 365.699219 1304.820312 365.699219 C 1325.921875 380.050781 1349.441406 404.449219 1369.320312 427.46875 C 1369.96875 427.878906 1370.648438 428.320312 1371.371094 428.789062 C 1372.878906 429.730469 1374.480469 430.878906 1376.179688 432.140625 C 1377.890625 433.398438 1379.710938 434.761719 1381.621094 436.210938 C 1385.441406 439.121094 1389.609375 442.421875 1393.929688 446.03125 C 1395 446.941406 1396.089844 447.859375 1397.199219 448.789062 C 1397.738281 449.261719 1398.289062 449.738281 1398.851562 450.21875 C 1399.378906 450.71875 1399.910156 451.230469 1400.449219 451.738281 C 1402.589844 453.789062 1404.75 455.921875 1406.890625 458.101562 C 1411.179688 462.460938 1415.421875 467.058594 1419.410156 471.808594 C 1421.449219 474.140625 1423.238281 476.738281 1425.03125 479.25 C 1426.808594 481.789062 1428.5 484.339844 1430.089844 486.910156 C 1433.261719 492.058594 1436.011719 497.238281 1438.140625 502.371094 C 1444.070312 518.019531 1445.191406 531.96875 1442.53125 542.03125" fill="#e7a811"/></g><g id="change2_21"><path d="M 1397.988281 702.878906 C 1395.890625 701.808594 1393.839844 700.660156 1391.828125 699.460938 C 1390.828125 698.859375 1389.839844 698.25 1388.859375 697.621094 L 1385.820312 695.820312 C 1381.800781 693.378906 1378 690.761719 1374.441406 688.101562 C 1372.648438 686.78125 1370.980469 685.390625 1369.269531 684.101562 C 1367.53125 682.839844 1365.859375 681.578125 1364.261719 680.328125 C 1361.058594 677.839844 1358.171875 675.398438 1355.621094 673.140625 C 1354.328125 672.03125 1353.199219 670.890625 1352.03125 669.949219 C 1350.871094 668.988281 1349.808594 668.089844 1348.851562 667.261719 C 1345.03125 663.929688 1342.871094 661.761719 1342.871094 661.761719 C 1342.871094 661.761719 1345.511719 660.238281 1350.070312 658.070312 C 1354.648438 655.910156 1361.148438 653.121094 1368.949219 650.640625 C 1370.898438 650.019531 1372.929688 649.421875 1375.03125 648.851562 C 1377.089844 648.320312 1379.210938 647.828125 1381.398438 647.398438 C 1385.761719 646.519531 1390.359375 645.851562 1395.089844 645.488281 C 1404.53125 644.800781 1414.710938 645.238281 1424.050781 648.269531 C 1427.539062 649.339844 1430.941406 650.628906 1434.210938 652.109375 C 1435.851562 652.839844 1437.449219 653.621094 1439.011719 654.449219 C 1439.789062 654.859375 1440.570312 655.28125 1441.328125 655.710938 C 1442.058594 656.160156 1442.78125 656.628906 1443.488281 657.101562 C 1449.179688 660.890625 1454.191406 665.230469 1458.21875 669.78125 C 1459.21875 670.921875 1460.191406 672.050781 1461.039062 673.230469 C 1461.859375 674.429688 1462.621094 675.640625 1463.308594 676.851562 C 1464.691406 679.261719 1465.789062 681.679688 1466.589844 684.070312 C 1468.179688 688.828125 1468.53125 693.441406 1467.410156 697.601562 C 1465.050781 706 1457.238281 710.96875 1447.089844 712.558594 C 1436.738281 714.269531 1423.808594 712.878906 1411.039062 708.300781 C 1406.550781 706.871094 1402.191406 705.019531 1397.988281 702.878906" fill="#e7a811"/></g><g id="change2_22"><path d="M 1515.671875 666.140625 C 1511.128906 665.289062 1506.730469 662.941406 1502.648438 659.398438 C 1500.609375 657.628906 1498.648438 655.558594 1496.78125 653.230469 C 1495.851562 652.058594 1494.941406 650.828125 1494.058594 649.53125 C 1493.148438 648.261719 1492.210938 646.960938 1491.328125 645.589844 C 1487.78125 640.109375 1484.679688 633.71875 1482.171875 626.660156 C 1481.871094 625.78125 1481.558594 624.890625 1481.25 623.988281 C 1480.941406 623.109375 1480.621094 622.21875 1480.300781 621.328125 C 1479.691406 619.539062 1479.109375 617.710938 1478.578125 615.851562 C 1477.511719 612.121094 1476.601562 608.261719 1475.890625 604.300781 C 1474.089844 593.460938 1473.570312 582.839844 1474.199219 572.480469 C 1474.511719 567.320312 1475.058594 562.261719 1475.769531 557.410156 C 1476.128906 554.988281 1476.519531 552.609375 1476.941406 550.320312 C 1477.308594 548.058594 1477.71875 545.859375 1478.148438 543.738281 C 1479.390625 537.550781 1480.789062 532.03125 1482.070312 527.511719 C 1462.941406 474.148438 1439.328125 433.21875 1439.328125 433.21875 C 1458.058594 454.820312 1476.5 489.398438 1490.519531 519.230469 C 1491.640625 520.398438 1492.949219 521.769531 1494.421875 523.351562 C 1495.660156 524.710938 1497.03125 526.199219 1498.5 527.808594 C 1499.96875 529.410156 1501.398438 531.28125 1502.949219 533.191406 C 1506.039062 537.058594 1509.378906 541.390625 1512.800781 546.078125 C 1514.511719 548.421875 1516.230469 550.859375 1517.960938 553.359375 C 1519.648438 555.890625 1521.230469 558.578125 1522.839844 561.28125 C 1526.039062 566.710938 1529.128906 572.359375 1531.941406 578.101562 C 1532.640625 579.53125 1533.339844 580.960938 1533.988281 582.421875 C 1534.601562 583.898438 1535.199219 585.378906 1535.769531 586.871094 C 1536.921875 589.839844 1537.96875 592.820312 1538.921875 595.769531 C 1540.820312 601.691406 1542.28125 607.550781 1543.148438 613.199219 C 1545.238281 630.261719 1542.910156 644.441406 1537.769531 653.808594 C 1532.421875 663.320312 1524.601562 667.910156 1515.671875 666.140625" fill="#e7a811"/></g><g id="change2_23"><path d="M 1415.570312 744.050781 C 1420.628906 742.988281 1427.78125 741.78125 1436.128906 741.191406 C 1440.269531 740.921875 1444.859375 740.71875 1449.359375 740.929688 C 1453.910156 741.109375 1458.648438 741.550781 1463.441406 742.339844 C 1472.96875 743.949219 1483.050781 746.820312 1491.601562 752.101562 C 1494.820312 754.011719 1497.890625 756.121094 1500.78125 758.378906 C 1502.230469 759.511719 1503.640625 760.679688 1505 761.878906 C 1505.671875 762.480469 1506.351562 763.078125 1506.988281 763.699219 C 1507.609375 764.328125 1508.210938 764.96875 1508.808594 765.609375 C 1513.550781 770.761719 1517.480469 776.300781 1520.390625 781.808594 C 1521.898438 784.539062 1522.910156 787.359375 1523.699219 790.089844 C 1524.488281 792.828125 1525 795.511719 1525.21875 798.070312 C 1525.640625 803.199219 1524.878906 807.859375 1522.738281 811.730469 C 1518.210938 819.539062 1509.300781 822.539062 1498.769531 821.660156 C 1497.449219 821.550781 1496.121094 821.371094 1494.75 821.148438 C 1493.351562 820.929688 1491.941406 820.660156 1490.5 820.328125 C 1487.628906 819.671875 1484.691406 818.789062 1481.71875 817.691406 C 1475.789062 815.5 1469.761719 812.480469 1463.96875 808.648438 C 1459.898438 806.121094 1455.96875 803.238281 1452.328125 800.101562 C 1450.5 798.53125 1448.738281 796.898438 1447.03125 795.230469 C 1446.179688 794.390625 1445.339844 793.539062 1444.519531 792.679688 L 1441.941406 790.148438 C 1438.550781 786.761719 1435.398438 783.25 1432.519531 779.738281 C 1431.039062 778.011719 1429.761719 776.199219 1428.320312 774.539062 C 1426.898438 772.871094 1425.550781 771.210938 1424.261719 769.578125 C 1421.699219 766.328125 1419.421875 763.210938 1417.449219 760.351562 C 1416.960938 759.628906 1416.480469 758.929688 1416.019531 758.261719 C 1415.53125 757.601562 1415.050781 756.960938 1414.589844 756.339844 C 1413.679688 755.109375 1412.851562 753.960938 1412.101562 752.898438 C 1409.121094 748.671875 1407.511719 745.980469 1407.511719 745.980469 C 1407.511719 745.980469 1410.5 745.101562 1415.570312 744.050781" fill="#e7a811"/></g><g id="change2_24"><path d="M 1608.761719 778.328125 C 1607.949219 779.671875 1607.109375 780.929688 1606.238281 782.109375 C 1605.351562 783.289062 1604.421875 784.398438 1603.46875 785.421875 C 1595.859375 793.570312 1586.851562 796.238281 1578.5 792.238281 C 1574.199219 790.28125 1570.371094 786.859375 1567.160156 782.339844 C 1565.558594 780.078125 1564.109375 777.53125 1562.808594 774.761719 C 1561.511719 771.980469 1560.441406 768.941406 1559.28125 765.800781 C 1557.070312 759.480469 1555.53125 752.351562 1554.738281 744.710938 C 1554.648438 743.761719 1554.570312 742.789062 1554.480469 741.820312 C 1554.378906 740.871094 1554.28125 739.898438 1554.179688 738.941406 C 1554 737 1553.871094 735.039062 1553.789062 733.050781 C 1553.628906 729.070312 1553.671875 725.011719 1553.929688 720.878906 C 1554.769531 709.640625 1556.769531 698.941406 1559.941406 688.738281 C 1561.5 683.660156 1563.28125 678.75 1565.160156 674.078125 C 1567.101562 669.390625 1568.871094 665.089844 1570.78125 661.039062 C 1574.539062 652.980469 1578.28125 646.238281 1581.089844 641.519531 C 1581.25 641.25 1581.398438 641.011719 1581.550781 640.75 C 1574.578125 587.488281 1561.738281 545.71875 1561.738281 545.71875 C 1576.238281 572.96875 1587.050781 614.859375 1594.058594 648.539062 C 1594.339844 649.058594 1594.609375 649.558594 1594.898438 650.101562 C 1595.429688 651.089844 1595.96875 652.109375 1596.53125 653.171875 C 1597.039062 654.261719 1597.570312 655.378906 1598.109375 656.53125 C 1600.238281 661.140625 1602.519531 666.289062 1604.789062 671.800781 C 1605.921875 674.558594 1607.050781 677.410156 1608.160156 680.328125 C 1609.300781 683.238281 1610.179688 686.339844 1611.140625 689.421875 C 1613.011719 695.621094 1614.730469 702.019531 1616.140625 708.429688 C 1616.480469 710.039062 1616.839844 711.628906 1617.121094 713.25 C 1617.378906 714.878906 1617.609375 716.511719 1617.820312 718.128906 C 1618.25 721.371094 1618.578125 724.601562 1618.808594 727.78125 C 1619.261719 734.160156 1619.328125 740.339844 1618.78125 746.210938 C 1617.730469 754.980469 1615.78125 762.769531 1613.160156 769.359375 C 1611.851562 772.660156 1610.371094 775.648438 1608.761719 778.328125" fill="#e7a811"/></g><g id="change2_25"><path d="M 1522.730469 939.550781 C 1517.671875 937.820312 1512.140625 935.070312 1506.78125 931.460938 C 1501.410156 927.839844 1496.148438 923.378906 1491.328125 918.191406 C 1487.941406 914.691406 1484.699219 910.898438 1481.851562 906.910156 C 1480.421875 904.921875 1479.058594 902.878906 1477.769531 900.808594 C 1477.128906 899.78125 1476.5 898.738281 1475.898438 897.691406 L 1473.949219 894.570312 C 1471.398438 890.390625 1469.128906 886.160156 1467.109375 882 C 1466.621094 880.960938 1466.128906 879.921875 1465.648438 878.890625 L 1464.949219 877.359375 L 1464.191406 875.851562 C 1463.179688 873.851562 1462.238281 871.890625 1461.359375 869.96875 C 1459.609375 866.140625 1458.109375 862.5 1456.839844 859.199219 C 1456.238281 857.53125 1455.53125 856.011719 1454.929688 854.558594 C 1454.320312 853.121094 1453.78125 851.769531 1453.289062 850.550781 C 1451.359375 845.640625 1450.421875 842.601562 1450.421875 842.601562 C 1450.421875 842.601562 1453.609375 842.429688 1458.898438 842.589844 C 1464.191406 842.75 1471.589844 843.238281 1480.03125 844.648438 C 1484.230469 845.359375 1488.800781 846.269531 1493.300781 847.53125 C 1497.789062 848.800781 1502.390625 850.371094 1506.960938 852.308594 C 1511.539062 854.238281 1516.089844 856.539062 1520.488281 859.261719 C 1522.648438 860.621094 1524.910156 862.058594 1526.859375 863.660156 C 1528.859375 865.261719 1530.789062 866.960938 1532.640625 868.769531 C 1535.371094 871.460938 1537.910156 874.300781 1540.25 877.238281 C 1541.421875 878.71875 1542.53125 880.21875 1543.589844 881.738281 C 1544.121094 882.5 1544.648438 883.261719 1545.128906 884.03125 C 1545.589844 884.808594 1546.039062 885.589844 1546.46875 886.371094 C 1549.941406 892.640625 1552.5 899.109375 1554.058594 905.289062 C 1554.910156 908.371094 1555.160156 911.429688 1555.308594 914.339844 C 1555.421875 917.25 1555.28125 920.03125 1554.859375 922.628906 C 1554.011719 927.828125 1552.191406 932.269531 1549.011719 935.589844 C 1542.589844 942.238281 1532.988281 943.011719 1522.730469 939.550781" fill="#e7a811"/></g><g id="change2_26"><path d="M 1660.648438 893.949219 C 1657.480469 902.449219 1653.628906 909.75 1649.421875 915.679688 C 1645.191406 921.609375 1640.660156 926.179688 1635.800781 929.320312 C 1626.230469 935.570312 1616.609375 935.988281 1609.28125 929.949219 C 1605.578125 926.921875 1602.53125 922.578125 1600.460938 917.28125 C 1599.421875 914.628906 1598.589844 911.75 1597.980469 908.660156 C 1597.339844 905.578125 1597.070312 902.28125 1596.671875 898.871094 C 1596.011719 892.03125 1596.210938 884.558594 1597.28125 876.75 C 1597.429688 875.769531 1597.578125 874.789062 1597.71875 873.800781 C 1597.859375 872.820312 1598 871.839844 1598.140625 870.851562 C 1598.429688 868.878906 1598.769531 866.890625 1599.179688 864.890625 C 1599.980469 860.890625 1601.011719 856.839844 1602.261719 852.789062 C 1603.109375 850.039062 1604.070312 847.339844 1605.128906 844.679688 C 1606.230469 842.011719 1607.179688 839.441406 1608.351562 836.890625 C 1610.621094 831.789062 1613.21875 826.878906 1616 822.179688 C 1618.78125 817.488281 1621.738281 813.011719 1624.738281 808.800781 C 1627.71875 804.609375 1630.558594 800.730469 1633.429688 797.148438 C 1638.578125 790.671875 1643.449219 785.28125 1647.25 781.320312 C 1660.089844 723.789062 1661.671875 673.75 1661.671875 673.75 C 1666.769531 705.5 1662.929688 751.019531 1658.398438 785.761719 C 1658.410156 785.800781 1658.421875 785.839844 1658.429688 785.878906 C 1658.941406 787.761719 1659.488281 789.828125 1660.089844 792.058594 C 1660.660156 794.289062 1661.308594 796.671875 1661.78125 799.25 C 1662.800781 804.378906 1663.820312 810.078125 1664.75 816.148438 C 1666.851562 828.21875 1667.441406 842.039062 1667.230469 855.539062 C 1667.179688 857.230469 1667.160156 858.910156 1667.039062 860.589844 C 1666.890625 862.28125 1666.730469 863.96875 1666.550781 865.640625 C 1666.179688 868.988281 1665.730469 872.300781 1665.191406 875.539062 C 1664.070312 882.019531 1662.679688 888.210938 1660.648438 893.949219" fill="#e7a811"/></g><g id="change2_27"><path d="M 1557.109375 1033.058594 C 1557.089844 1034.691406 1557.078125 1036.289062 1556.910156 1037.839844 C 1556.71875 1039.390625 1556.460938 1040.898438 1556.160156 1042.359375 C 1555.539062 1045.28125 1554.699219 1048 1553.640625 1050.480469 C 1551.519531 1055.429688 1548.519531 1059.371094 1544.648438 1061.890625 C 1536.609375 1066.898438 1526.878906 1065.28125 1517.550781 1059.308594 C 1512.921875 1056.328125 1508.058594 1052.230469 1503.660156 1047.339844 C 1499.230469 1042.441406 1495.128906 1036.71875 1491.609375 1030.410156 C 1489.011719 1026.109375 1486.800781 1021.570312 1484.941406 1016.941406 C 1483.03125 1012.300781 1481.71875 1007.558594 1480.089844 1002.808594 C 1478.578125 998.070312 1477.371094 993.339844 1476.398438 988.75 C 1476.171875 987.601562 1475.949219 986.460938 1475.71875 985.328125 C 1475.460938 984.199219 1475.199219 983.078125 1474.941406 981.96875 C 1474.429688 979.761719 1473.980469 977.589844 1473.578125 975.488281 C 1472.78125 971.28125 1472.191406 967.328125 1471.738281 963.761719 C 1471.128906 960.210938 1470.609375 957.03125 1470.261719 954.378906 C 1469.550781 949.070312 1469.359375 945.839844 1469.359375 945.839844 C 1469.359375 945.839844 1472.570312 946.429688 1477.789062 947.851562 C 1483.011719 949.269531 1490.238281 951.53125 1498.289062 954.949219 C 1502.320312 956.660156 1506.539062 958.660156 1510.828125 960.988281 C 1515.039062 963.320312 1519.179688 965.988281 1523.261719 969.019531 C 1527.328125 972.039062 1531.289062 975.421875 1534.988281 979.179688 C 1536.839844 981.058594 1538.621094 983.03125 1540.320312 985.101562 C 1541.921875 987.160156 1543.410156 989.320312 1544.800781 991.570312 C 1548.871094 998.21875 1552.171875 1005.339844 1554.269531 1012.421875 C 1556.148438 1019.5 1557.101562 1026.539062 1557.109375 1033.058594" fill="#e7a811"/></g><g id="change2_28"><path d="M 1686.46875 991.03125 C 1685.191406 997.78125 1683.671875 1004.628906 1681.851562 1011.351562 C 1680.171875 1018.070312 1677.578125 1024.628906 1674.941406 1030.828125 C 1672.238281 1037.03125 1669.238281 1042.859375 1665.910156 1048.089844 C 1660.648438 1055.789062 1654.988281 1062.109375 1649.320312 1066.980469 C 1643.609375 1071.839844 1638.019531 1075.28125 1632.449219 1077.199219 C 1621.371094 1081.039062 1611.71875 1079.070312 1605.941406 1071.238281 C 1602.898438 1067.289062 1601.039062 1062.230469 1600.28125 1056.449219 C 1599.910156 1053.550781 1599.808594 1050.480469 1599.96875 1047.261719 C 1600.058594 1045.648438 1600.210938 1044 1600.421875 1042.320312 C 1600.609375 1040.648438 1600.769531 1038.929688 1601.050781 1037.191406 C 1602.089844 1030.21875 1604.148438 1022.828125 1607.148438 1015.320312 C 1609.949219 1007.800781 1613.429688 1000.128906 1617.949219 992.671875 C 1619.46875 990.140625 1621.101562 987.679688 1622.800781 985.289062 C 1624.398438 982.890625 1626.089844 980.570312 1627.839844 978.300781 C 1631.359375 973.78125 1635.148438 969.5 1639.058594 965.488281 C 1642.96875 961.480469 1647.058594 957.730469 1651 954.261719 C 1654.878906 950.800781 1658.738281 947.609375 1662.429688 944.730469 C 1669.828125 938.96875 1676.570312 934.429688 1681.46875 931.339844 C 1686.371094 928.261719 1689.421875 926.648438 1689.421875 926.648438 C 1689.421875 926.648438 1689.808594 931.511719 1690.050781 939.53125 C 1690.160156 943.550781 1690.269531 948.351562 1690.210938 953.71875 C 1689.960938 959.109375 1689.578125 965.058594 1689.019531 971.359375 C 1688.738281 974.511719 1688.410156 977.738281 1688.019531 981.03125 C 1687.820312 982.671875 1687.640625 984.328125 1687.378906 986 C 1687.078125 987.660156 1686.78125 989.339844 1686.46875 991.03125" fill="#e7a811"/></g><g id="change2_29"><path d="M 1526.25 1166.789062 C 1524.949219 1169.539062 1523.390625 1172.03125 1521.71875 1174.230469 C 1518.359375 1178.609375 1514.378906 1181.78125 1509.898438 1183.328125 C 1505.449219 1184.898438 1500.769531 1184.640625 1496.328125 1182.988281 C 1491.859375 1181.328125 1487.671875 1178.308594 1483.660156 1174.171875 C 1479.648438 1170.019531 1475.960938 1164.808594 1472.789062 1158.871094 C 1471.199219 1155.898438 1469.75 1152.75 1468.460938 1149.449219 C 1467.789062 1147.789062 1467.25 1146.128906 1466.601562 1144.378906 C 1465.96875 1142.640625 1465.371094 1140.859375 1464.820312 1139.050781 C 1463.328125 1134.160156 1462.300781 1129.128906 1461.640625 1124.078125 C 1461.46875 1122.820312 1461.328125 1121.550781 1461.210938 1120.289062 L 1461.050781 1118.398438 L 1460.820312 1116.480469 C 1460.519531 1113.921875 1460.308594 1111.371094 1460.160156 1108.839844 C 1459.871094 1103.78125 1459.890625 1098.808594 1460.078125 1094.03125 C 1460 1089.179688 1460.140625 1084.53125 1460.410156 1080.179688 C 1461.171875 1071.519531 1461.539062 1063.890625 1462.21875 1058.480469 C 1462.851562 1053.078125 1463.480469 1049.839844 1463.480469 1049.839844 C 1463.480469 1049.839844 1466.519531 1051.199219 1471.351562 1053.859375 C 1476.179688 1056.53125 1482.789062 1060.511719 1489.929688 1065.839844 C 1493.5 1068.511719 1497.199219 1071.519531 1500.871094 1074.859375 C 1502.710938 1076.539062 1504.53125 1078.289062 1506.339844 1080.140625 C 1508.128906 1081.980469 1509.769531 1083.878906 1511.429688 1085.871094 C 1514.710938 1089.859375 1517.789062 1094.179688 1520.519531 1098.800781 C 1521.878906 1101.109375 1523.148438 1103.5 1524.320312 1105.960938 C 1525.449219 1108.410156 1526.609375 1110.96875 1527.371094 1113.53125 C 1529.761719 1121.121094 1531.128906 1128.949219 1531.558594 1136.519531 C 1531.859375 1140.339844 1531.570312 1143.980469 1531.171875 1147.53125 C 1530.761719 1151.070312 1530.140625 1154.488281 1529.308594 1157.71875 C 1528.488281 1160.949219 1527.460938 1163.988281 1526.25 1166.789062" fill="#e7a811"/></g><g id="change2_30"><path d="M 1651.769531 1178.011719 L 1650.230469 1180.160156 C 1649.199219 1181.578125 1648.148438 1182.980469 1647.089844 1184.351562 C 1642.839844 1189.839844 1638.378906 1194.878906 1633.738281 1199.25 C 1632.019531 1200.859375 1630.300781 1202.390625 1628.589844 1203.820312 C 1626.878906 1205.25 1625.03125 1206.539062 1623.269531 1207.769531 C 1619.710938 1210.210938 1616.199219 1212.289062 1612.761719 1214.011719 C 1605.890625 1217.449219 1599.359375 1219.441406 1593.480469 1220.039062 C 1587.621094 1220.640625 1582.261719 1219.808594 1578.039062 1217.730469 C 1573.78125 1215.628906 1570.601562 1212.28125 1568.53125 1207.609375 C 1566.488281 1202.949219 1565.921875 1197.480469 1566.628906 1191.558594 C 1566.96875 1188.601562 1567.679688 1185.539062 1568.609375 1182.371094 C 1569.441406 1179.171875 1570.570312 1175.890625 1571.980469 1172.558594 C 1573.378906 1169.238281 1575.070312 1165.871094 1577.011719 1162.5 C 1578.941406 1159.121094 1581.230469 1155.769531 1583.421875 1152.328125 C 1587.960938 1145.511719 1593.460938 1138.789062 1599.820312 1132.480469 C 1602.03125 1130.359375 1604.039062 1128.261719 1606.261719 1126.28125 C 1608.460938 1124.289062 1610.71875 1122.390625 1613.039062 1120.570312 C 1617.671875 1116.929688 1622.519531 1113.609375 1627.421875 1110.570312 C 1629.851562 1109.050781 1632.371094 1107.621094 1634.761719 1106.230469 C 1637.140625 1104.839844 1639.519531 1103.519531 1641.878906 1102.261719 C 1646.601562 1099.761719 1651.230469 1097.519531 1655.628906 1095.550781 C 1664.429688 1091.609375 1672.261719 1088.71875 1677.910156 1086.828125 C 1683.539062 1084.949219 1686.980469 1084.078125 1686.980469 1084.078125 C 1686.980469 1084.078125 1686.148438 1089.019531 1684.378906 1097.078125 C 1682.570312 1105.128906 1680.101562 1116.359375 1675.589844 1128.570312 C 1673.449219 1134.699219 1671.03125 1141.121094 1668.339844 1147.589844 C 1665.390625 1153.980469 1662.121094 1160.410156 1658.628906 1166.628906 C 1656.878906 1169.75 1655.070312 1172.808594 1653.191406 1175.789062 L 1651.769531 1178.011719" fill="#e7a811"/></g><g id="change2_31"><path d="M 1472.96875 1272.230469 C 1466.210938 1284.039062 1457.210938 1292.109375 1447.28125 1292.730469 C 1437.488281 1293.511719 1429.28125 1287.25 1423.449219 1277.128906 C 1420.511719 1272.058594 1418.261719 1266.101562 1416.550781 1259.449219 C 1414.761719 1252.738281 1413.640625 1245.441406 1413.371094 1237.890625 C 1412.25 1217.171875 1418.199219 1195.851562 1422.980469 1178.648438 C 1423.640625 1176.539062 1424.308594 1174.5 1424.980469 1172.558594 C 1425.578125 1170.578125 1426.140625 1168.679688 1426.71875 1166.898438 C 1427.859375 1163.320312 1428.980469 1160.191406 1429.96875 1157.589844 C 1430.46875 1156.300781 1430.929688 1155.128906 1431.328125 1154.109375 C 1431.738281 1153.101562 1432.011719 1152.191406 1432.289062 1151.46875 C 1432.828125 1150.03125 1433.128906 1149.238281 1433.128906 1149.238281 C 1433.128906 1149.238281 1435.859375 1151.339844 1440.109375 1155.171875 C 1444.421875 1159.039062 1449.929688 1164.519531 1455.75 1171.519531 C 1458.648438 1175.019531 1461.589844 1178.878906 1464.421875 1183.070312 C 1465.839844 1185.171875 1467.230469 1187.351562 1468.570312 1189.609375 C 1469.898438 1191.859375 1471.238281 1194.21875 1472.359375 1196.570312 C 1474.671875 1201.308594 1476.691406 1206.328125 1478.289062 1211.570312 C 1479.089844 1214.191406 1479.78125 1216.871094 1480.351562 1219.589844 C 1480.640625 1220.949219 1480.890625 1222.328125 1481.109375 1223.710938 C 1481.320312 1225.089844 1481.429688 1226.441406 1481.539062 1227.820312 C 1482.109375 1235.941406 1481.699219 1244.109375 1480.238281 1251.691406 C 1478.601562 1259.160156 1476.089844 1266.171875 1472.96875 1272.230469" fill="#e7a811"/></g><g id="change2_32"><path d="M 1542.039062 1348.578125 C 1534.351562 1350.328125 1527.210938 1350.609375 1521.199219 1349.75 C 1509.121094 1347.988281 1501.128906 1341.441406 1499.519531 1331.28125 C 1498.089844 1321.199219 1502.589844 1309 1511.75 1297.371094 C 1516.078125 1291.390625 1521.550781 1285.5 1527.96875 1279.949219 C 1534.199219 1274.289062 1541.179688 1268.859375 1549.019531 1264.089844 C 1550.328125 1263.28125 1551.699219 1262.511719 1553.011719 1261.738281 C 1554.308594 1260.960938 1555.628906 1260.210938 1556.960938 1259.480469 C 1559.621094 1258.03125 1562.339844 1256.679688 1565.078125 1255.421875 C 1570.570312 1252.910156 1576.199219 1250.761719 1581.808594 1248.921875 C 1592.878906 1245.160156 1603.710938 1242.488281 1613.46875 1240.691406 C 1623.179688 1238.871094 1631.789062 1237.910156 1637.699219 1237.328125 C 1643.691406 1236.761719 1647.269531 1236.710938 1647.269531 1236.710938 C 1647.269531 1236.710938 1646.789062 1237.890625 1645.910156 1240.058594 C 1645.449219 1241.128906 1644.929688 1242.460938 1644.210938 1243.96875 C 1643.488281 1245.480469 1642.648438 1247.191406 1641.730469 1249.089844 C 1639.859375 1252.890625 1637.558594 1257.390625 1634.878906 1262.378906 C 1633.53125 1264.871094 1632.109375 1267.488281 1630.558594 1270.179688 C 1628.929688 1272.839844 1627.210938 1275.578125 1625.390625 1278.378906 C 1611.429688 1301.03125 1589.421875 1326.058594 1566.511719 1338.898438 C 1557.910156 1343.570312 1549.640625 1346.761719 1542.039062 1348.578125" fill="#e7a811"/></g><g id="change2_33"><path d="M 1408.949219 1333.828125 C 1408.511719 1335.878906 1408 1337.898438 1407.351562 1339.808594 C 1406.101562 1343.671875 1404.628906 1347.410156 1402.960938 1350.980469 C 1402.128906 1352.761719 1401.25 1354.511719 1400.328125 1356.199219 C 1399.410156 1357.890625 1398.46875 1359.558594 1397.390625 1361.070312 C 1395.289062 1364.128906 1393.039062 1366.96875 1390.699219 1369.539062 C 1388.359375 1372.121094 1385.929688 1374.421875 1383.449219 1376.398438 C 1380.878906 1378.28125 1378.261719 1379.851562 1375.648438 1381.058594 C 1370.421875 1383.480469 1365.210938 1384.46875 1360.328125 1383.710938 C 1350.371094 1381.96875 1343.769531 1373.71875 1340.53125 1362.308594 C 1338.941406 1356.640625 1337.96875 1349.941406 1337.910156 1342.941406 C 1337.878906 1339.421875 1338.050781 1335.808594 1338.429688 1332.140625 C 1338.621094 1330.300781 1338.890625 1328.46875 1339.160156 1326.589844 C 1339.410156 1324.679688 1339.71875 1322.761719 1340.078125 1320.839844 C 1341.058594 1315.628906 1342.519531 1310.53125 1344.320312 1305.609375 C 1346.03125 1300.570312 1347.949219 1295.578125 1350.171875 1290.871094 C 1350.71875 1289.699219 1351.28125 1288.53125 1351.859375 1287.378906 L 1352.730469 1285.660156 L 1353.550781 1283.898438 C 1354.640625 1281.570312 1355.78125 1279.300781 1356.941406 1277.109375 C 1359.238281 1272.691406 1361.808594 1268.691406 1363.941406 1264.679688 C 1366.171875 1260.75 1368.378906 1257.179688 1370.460938 1254.011719 C 1371.53125 1252.460938 1372.441406 1250.910156 1373.320312 1249.480469 C 1374.199219 1248.058594 1375.03125 1246.761719 1375.800781 1245.578125 C 1378.878906 1240.871094 1380.949219 1238.171875 1380.949219 1238.171875 C 1380.949219 1238.171875 1383.148438 1240.890625 1386.398438 1245.660156 C 1389.660156 1250.441406 1393.960938 1257.289062 1398.109375 1265.660156 C 1400.160156 1269.828125 1402.28125 1274.460938 1404.019531 1279.238281 C 1405.761719 1284.03125 1407.308594 1289.121094 1408.511719 1294.421875 C 1409.710938 1299.71875 1410.589844 1305.25 1410.960938 1310.878906 C 1411.199219 1316.390625 1410.949219 1322.019531 1410.089844 1327.648438 C 1409.769531 1329.730469 1409.390625 1331.789062 1408.949219 1333.828125" fill="#e7a811"/></g><g id="change2_34"><path d="M 1460.121094 1460.570312 C 1457.800781 1461.03125 1455.46875 1461.371094 1453.230469 1461.648438 C 1448.730469 1462.199219 1444.441406 1462.429688 1440.410156 1462.359375 C 1432.328125 1462.199219 1425.371094 1460.960938 1419.550781 1458.539062 C 1407.941406 1453.75 1401.640625 1445.269531 1402.621094 1434.871094 C 1403.03125 1429.550781 1405.171875 1424.179688 1408.71875 1419.03125 C 1410.488281 1416.449219 1412.621094 1413.929688 1415.058594 1411.480469 C 1417.410156 1408.921875 1420.058594 1406.429688 1423 1404.050781 C 1425.929688 1401.648438 1429.148438 1399.359375 1432.609375 1397.179688 C 1434.328125 1396.101562 1436.089844 1395.011719 1437.871094 1393.898438 C 1439.660156 1392.808594 1441.5 1391.761719 1443.410156 1390.738281 C 1447.210938 1388.699219 1451.21875 1386.808594 1455.421875 1385.078125 C 1457.511719 1384.230469 1459.621094 1383.378906 1461.738281 1382.519531 C 1463.871094 1381.679688 1466.03125 1380.890625 1468.238281 1380.148438 C 1474.199219 1378.148438 1480.320312 1376.660156 1486.46875 1375.558594 C 1492.5 1374.359375 1498.539062 1373.519531 1504.519531 1372.988281 C 1510.5 1372.460938 1516.398438 1372.230469 1522.078125 1372.210938 C 1527.769531 1372.191406 1533.058594 1372.230469 1538.121094 1372.488281 C 1548.171875 1372.960938 1556.851562 1373.96875 1562.988281 1374.878906 C 1569.140625 1375.78125 1572.75 1376.589844 1572.75 1376.589844 C 1572.75 1376.589844 1569.628906 1380.859375 1564.128906 1387.609375 C 1562.75 1389.289062 1561.230469 1391.128906 1559.578125 1393.109375 C 1557.929688 1395.078125 1556.148438 1397.191406 1554.121094 1399.289062 C 1550.128906 1403.550781 1545.621094 1408.179688 1540.71875 1412.949219 C 1520.898438 1431.859375 1493.449219 1452 1467.171875 1458.820312 C 1464.78125 1459.488281 1462.429688 1460.070312 1460.121094 1460.570312" fill="#e7a811"/></g><g id="change2_35"><path d="M 1317.070312 1407.5 C 1315.390625 1411.410156 1313.46875 1415.199219 1311.351562 1418.820312 C 1310.289062 1420.628906 1309.179688 1422.390625 1308.03125 1424.109375 C 1306.851562 1425.78125 1305.601562 1427.351562 1304.320312 1428.898438 C 1301.769531 1431.988281 1299.078125 1434.859375 1296.300781 1437.480469 C 1294.910156 1438.789062 1293.5 1440.039062 1292.070312 1441.21875 C 1290.640625 1442.308594 1289.199219 1443.328125 1287.75 1444.28125 C 1276.21875 1452.070312 1263.789062 1454.101562 1254.808594 1449.679688 C 1250.320312 1447.519531 1246.988281 1443.800781 1244.828125 1439.230469 C 1242.648438 1434.640625 1241.628906 1429.171875 1241.488281 1423.109375 C 1241.339844 1417.03125 1242.089844 1410.410156 1243.628906 1403.730469 C 1244.378906 1400.351562 1245.261719 1396.859375 1246.351562 1393.441406 C 1246.890625 1391.730469 1247.480469 1390.019531 1248.121094 1388.328125 C 1248.761719 1386.648438 1249.378906 1384.859375 1250.078125 1383.148438 C 1251.011719 1380.820312 1252.039062 1378.558594 1253.148438 1376.378906 L 1254.011719 1374.738281 L 1255.019531 1372.960938 C 1255.710938 1371.78125 1256.421875 1370.621094 1257.140625 1369.46875 C 1260.019531 1364.851562 1263.28125 1360.609375 1266.570312 1356.421875 C 1269.800781 1352.140625 1273.191406 1348.128906 1276.621094 1344.429688 C 1278.371094 1342.628906 1279.960938 1340.671875 1281.609375 1338.890625 C 1283.25 1337.089844 1284.878906 1335.378906 1286.488281 1333.738281 C 1288.089844 1332.109375 1289.679688 1330.558594 1291.210938 1329.101562 C 1292.691406 1327.550781 1294.109375 1326.089844 1295.488281 1324.730469 C 1298.230469 1322.011719 1300.75 1319.679688 1302.878906 1317.78125 C 1305.058594 1315.929688 1306.648438 1314.25 1307.839844 1313.21875 C 1309.03125 1312.160156 1309.671875 1311.589844 1309.671875 1311.589844 C 1309.671875 1311.589844 1311.21875 1314.828125 1313.339844 1320.398438 C 1314.398438 1323.179688 1315.589844 1326.550781 1316.800781 1330.390625 C 1317.980469 1334.210938 1319.121094 1338.441406 1320.140625 1343.058594 C 1322.171875 1352.269531 1323.730469 1363.039062 1323.589844 1374.191406 C 1323.460938 1379.691406 1322.929688 1385.308594 1321.898438 1390.941406 C 1320.859375 1396.550781 1319.378906 1402.261719 1317.070312 1407.5" fill="#e7a811"/></g><g id="change2_36"><path d="M 1311.160156 1486.53125 C 1312.949219 1485.699219 1314.820312 1484.921875 1316.738281 1484.171875 C 1318.578125 1483.378906 1320.480469 1482.621094 1322.441406 1481.921875 C 1326.351562 1480.511719 1330.46875 1479.269531 1334.78125 1478.230469 C 1336.929688 1477.699219 1339.128906 1477.238281 1341.359375 1476.789062 C 1343.550781 1476.300781 1345.78125 1475.851562 1348.039062 1475.460938 C 1352.570312 1474.671875 1357.25 1474.101562 1362.019531 1473.75 C 1368.53125 1473.359375 1374.839844 1473.179688 1381.160156 1473.5 C 1387.46875 1473.800781 1393.738281 1474.511719 1399.839844 1475.488281 C 1411.941406 1477.300781 1423.339844 1480.03125 1433.300781 1483.039062 C 1438.261719 1484.519531 1442.878906 1486.078125 1446.941406 1487.5 C 1450.96875 1488.898438 1454.519531 1490.25 1457.449219 1491.421875 C 1463.308594 1493.75 1466.679688 1495.410156 1466.679688 1495.410156 C 1466.679688 1495.410156 1465.648438 1496.289062 1463.769531 1497.878906 C 1461.851562 1499.429688 1459.160156 1501.808594 1455.519531 1504.398438 C 1451.921875 1507.03125 1447.570312 1510.128906 1442.640625 1513.488281 C 1440.171875 1515.171875 1437.550781 1516.921875 1434.808594 1518.699219 C 1432 1520.390625 1429.058594 1522.121094 1426.011719 1523.859375 C 1422.960938 1525.601562 1419.800781 1527.351562 1416.558594 1529.078125 C 1413.308594 1530.800781 1410.03125 1532.601562 1406.53125 1534.121094 C 1399.609375 1537.269531 1392.429688 1540.261719 1385.199219 1542.898438 C 1377.898438 1545.441406 1370.410156 1547.421875 1363.140625 1549 C 1361.308594 1549.390625 1359.5 1549.738281 1357.699219 1550.058594 L 1355.011719 1550.519531 C 1354.050781 1550.660156 1353.089844 1550.800781 1352.140625 1550.941406 C 1348.300781 1551.460938 1344.550781 1551.820312 1340.890625 1552.011719 C 1338.191406 1552.121094 1335.589844 1552.230469 1333.011719 1552.121094 C 1330.429688 1552.03125 1327.941406 1551.859375 1325.519531 1551.609375 C 1320.699219 1551.109375 1316.230469 1550.378906 1312.101562 1549.28125 C 1303.808594 1547.019531 1297.019531 1543.808594 1291.890625 1539.960938 C 1286.761719 1536.089844 1283.261719 1531.519531 1281.570312 1526.761719 C 1279.878906 1521.960938 1280 1517.011719 1281.988281 1511.851562 C 1286.019531 1501.601562 1296.890625 1493.300781 1311.160156 1486.53125" fill="#e7a811"/></g><g id="change2_37"><path d="M 800.335938 1517.058594 C 806.148438 1518.441406 811.921875 1519.789062 817.667969 1520.980469 C 823.40625 1522.25 829.109375 1523.378906 834.773438 1524.5 C 857.429688 1528.949219 879.390625 1532.609375 900.515625 1536.351562 C 917.582031 1539.359375 934.097656 1542.390625 950.039062 1545.589844 C 960.660156 1541.769531 971.492188 1538.121094 982.507812 1534.621094 C 976.9375 1533.058594 971.289062 1531.53125 965.550781 1530.03125 C 946.097656 1524.941406 925.714844 1520.179688 904.648438 1515.539062 C 883.59375 1510.871094 861.835938 1506.339844 839.792969 1501.171875 C 834.289062 1499.871094 828.738281 1498.570312 823.214844 1497.148438 C 817.65625 1495.800781 812.128906 1494.300781 806.570312 1492.789062 C 803.777344 1492.058594 801.015625 1491.25 798.25 1490.429688 C 795.480469 1489.621094 792.699219 1488.808594 789.914062 1487.988281 C 787.15625 1487.109375 784.390625 1486.230469 781.617188 1485.351562 L 777.453125 1484.019531 L 773.328125 1482.578125 C 770.578125 1481.621094 767.816406 1480.660156 765.054688 1479.691406 C 762.324219 1478.640625 759.585938 1477.589844 756.84375 1476.539062 C 751.320312 1474.53125 745.972656 1472.070312 740.507812 1469.808594 C 729.753906 1464.921875 719.003906 1459.789062 708.621094 1453.789062 L 704.703125 1451.570312 L 702.742188 1450.460938 L 700.800781 1449.261719 C 698.207031 1447.648438 695.609375 1446.039062 693.003906 1444.429688 C 690.402344 1442.820312 687.789062 1441.210938 685.175781 1439.589844 L 683.21875 1438.378906 L 681.308594 1437.089844 L 677.480469 1434.5 C 674.925781 1432.769531 672.367188 1431.039062 669.800781 1429.308594 C 667.257812 1427.550781 664.625 1425.910156 662.164062 1424.011719 C 657.171875 1420.328125 652.160156 1416.628906 647.136719 1412.921875 C 637.363281 1405.148438 627.488281 1397.378906 618.144531 1388.890625 C 615.769531 1386.820312 613.386719 1384.738281 611.007812 1382.660156 C 608.714844 1380.480469 606.421875 1378.300781 604.128906 1376.121094 C 601.832031 1373.929688 599.535156 1371.738281 597.234375 1369.550781 C 596.09375 1368.449219 594.914062 1367.390625 593.804688 1366.25 L 590.496094 1362.808594 C 572.476562 1344.828125 555.996094 1325.089844 540.644531 1304.460938 L 534.871094 1296.71875 C 533.003906 1294.101562 531.242188 1291.398438 529.417969 1288.738281 L 523.984375 1280.738281 L 521.269531 1276.738281 L 518.726562 1272.621094 C 515.347656 1267.128906 511.964844 1261.628906 508.585938 1256.128906 L 499.164062 1239.199219 C 486.941406 1216.441406 476.300781 1192.839844 467.234375 1168.730469 C 465.144531 1162.640625 463.054688 1156.558594 460.96875 1150.480469 L 459.398438 1145.929688 L 458.613281 1143.648438 C 458.371094 1142.890625 458.164062 1142.109375 457.9375 1141.339844 C 457.046875 1138.261719 456.160156 1135.179688 455.269531 1132.109375 C 454.378906 1129.03125 453.484375 1125.949219 452.597656 1122.878906 C 451.699219 1119.808594 450.765625 1116.75 450.097656 1113.628906 C 448.621094 1107.421875 447.148438 1101.210938 445.675781 1095.019531 C 445.320312 1093.46875 444.921875 1091.929688 444.597656 1090.378906 L 443.738281 1085.691406 C 443.160156 1082.570312 442.589844 1079.449219 442.015625 1076.328125 C 441.441406 1073.21875 440.863281 1070.101562 440.292969 1066.988281 L 439.859375 1064.660156 C 439.730469 1063.878906 439.644531 1063.101562 439.535156 1062.320312 L 438.914062 1057.621094 C 438.058594 1051.371094 437.207031 1045.140625 436.355469 1038.921875 C 435.726562 1032.679688 435.261719 1026.429688 434.703125 1020.21875 C 434.449219 1017.109375 434.128906 1014 433.933594 1010.898438 C 433.820312 1007.789062 433.710938 1004.679688 433.597656 1001.578125 C 433.484375 998.480469 433.371094 995.390625 433.261719 992.300781 L 433.089844 987.660156 L 433.003906 985.351562 L 433.027344 983.039062 C 433.234375 970.710938 433.078125 958.460938 434.035156 946.339844 C 436.609375 897.769531 446.273438 851.328125 459.796875 808.710938 C 460.546875 806.019531 461.515625 803.398438 462.445312 800.78125 C 463.371094 798.171875 464.296875 795.558594 465.214844 792.960938 C 466.136719 790.359375 467.054688 787.761719 467.96875 785.179688 L 469.335938 781.308594 L 470.882812 777.53125 C 475.066406 767.488281 478.820312 757.421875 483.488281 747.960938 C 485.699219 743.160156 487.890625 738.410156 490.0625 733.699219 C 492.457031 729.101562 494.832031 724.539062 497.183594 720.019531 C 498.359375 717.761719 499.53125 715.5 500.699219 713.261719 C 501.292969 712.148438 501.835938 711.011719 502.46875 709.921875 C 503.101562 708.839844 503.734375 707.761719 504.363281 706.679688 C 506.882812 702.351562 509.378906 698.070312 511.851562 693.828125 C 531.882812 660.070312 553.863281 631.21875 575.238281 607.328125 C 596.648438 583.449219 617.261719 564.328125 634.925781 549.351562 C 639.347656 545.679688 643.6875 542.398438 647.683594 539.179688 C 650.429688 541.921875 654.148438 543.699219 658.496094 544.589844 C 660.671875 545.03125 663.003906 545.261719 665.457031 545.269531 C 667.894531 545.25 670.589844 545.21875 673.300781 544.878906 C 678.757812 544.25 684.570312 542.808594 690.480469 540.570312 C 691.96875 540.019531 693.421875 539.359375 694.949219 538.761719 C 696.480469 538.171875 698.015625 537.53125 699.546875 536.839844 C 702.617188 535.460938 705.6875 533.878906 708.726562 532.101562 C 717.707031 526.53125 726.648438 520.191406 734.679688 512.75 C 735.679688 511.808594 736.679688 510.878906 737.671875 509.949219 C 738.652344 509 739.683594 508.171875 740.667969 507.261719 C 742.652344 505.46875 744.589844 503.648438 746.472656 501.820312 C 750.238281 498.171875 753.789062 494.488281 757.074219 490.929688 C 758.695312 489.101562 760.335938 487.5 761.875 485.890625 C 763.417969 484.289062 764.882812 482.730469 766.265625 481.238281 C 767.675781 479.710938 768.988281 478.261719 770.210938 476.898438 C 824.085938 455.960938 871.863281 446.910156 871.863281 446.910156 C 842.773438 446.808594 803.695312 455.671875 771.617188 464.660156 C 771.117188 464.609375 770.609375 464.558594 770.074219 464.511719 C 767.023438 464.210938 763.335938 463.921875 759.136719 463.699219 C 757.039062 463.589844 754.8125 463.511719 752.476562 463.449219 C 750.140625 463.390625 747.671875 463.320312 745.195312 463.480469 C 740.199219 463.710938 734.835938 464.101562 729.253906 464.730469 C 726.460938 465.050781 723.613281 465.421875 720.734375 465.859375 C 719.300781 466.089844 717.824219 466.28125 716.40625 466.601562 C 714.980469 466.910156 713.550781 467.25 712.113281 467.601562 C 700.683594 470.46875 688.804688 474.140625 678.765625 480.320312 C 675.371094 482.308594 672.152344 484.421875 669.132812 486.609375 C 667.621094 487.699219 666.160156 488.820312 664.757812 489.949219 C 663.355469 491.078125 662.074219 492.351562 660.816406 493.558594 C 655.804688 498.480469 651.699219 503.539062 648.667969 508.480469 C 647.164062 510.96875 645.863281 513.328125 644.972656 515.808594 C 644.066406 518.261719 643.441406 520.648438 643.105469 522.921875 C 642.4375 527.46875 642.9375 531.601562 644.6875 535.058594 C 640.410156 537.96875 635.773438 540.949219 631.054688 544.339844 C 612.125 558.109375 589.695312 575.828125 566.320312 598.859375 C 542.953125 621.851562 518.691406 650.179688 496.25 683.988281 C 493.492188 688.261719 490.707031 692.558594 487.898438 696.910156 C 487.195312 697.988281 486.488281 699.089844 485.78125 700.179688 C 485.074219 701.269531 484.460938 702.421875 483.789062 703.539062 C 482.476562 705.808594 481.15625 708.078125 479.828125 710.359375 C 477.175781 714.929688 474.5 719.550781 471.796875 724.210938 C 469.316406 728.980469 466.8125 733.808594 464.289062 738.671875 C 459.0625 748.320312 454.730469 758.601562 449.96875 768.890625 L 448.207031 772.769531 L 446.621094 776.738281 C 445.5625 779.390625 444.5 782.050781 443.433594 784.71875 C 442.367188 787.398438 441.296875 790.078125 440.222656 792.769531 C 439.148438 795.460938 438.03125 798.160156 437.132812 800.929688 C 421.4375 844.878906 409.765625 893.300781 405.878906 944.359375 C 404.53125 957.089844 404.394531 970 403.945312 982.988281 L 403.878906 985.429688 L 403.921875 987.871094 L 404.007812 992.761719 C 404.070312 996.019531 404.128906 999.28125 404.1875 1002.558594 C 404.253906 1005.828125 404.316406 1009.109375 404.378906 1012.390625 C 404.527344 1015.671875 404.800781 1018.949219 405.007812 1022.238281 C 405.476562 1028.808594 405.859375 1035.421875 406.410156 1042.03125 C 407.191406 1048.609375 407.972656 1055.21875 408.753906 1061.839844 L 409.363281 1066.800781 C 409.472656 1067.628906 409.554688 1068.460938 409.679688 1069.289062 L 410.105469 1071.761719 C 410.675781 1075.050781 411.246094 1078.351562 411.816406 1081.648438 C 412.390625 1084.949219 412.964844 1088.25 413.535156 1091.558594 L 414.398438 1096.53125 C 414.722656 1098.179688 415.125 1099.808594 415.484375 1101.449219 C 416.957031 1108.019531 418.4375 1114.601562 419.917969 1121.191406 C 420.597656 1124.5 421.546875 1127.75 422.460938 1131 C 423.375 1134.261719 424.285156 1137.519531 425.199219 1140.78125 C 426.117188 1144.050781 427.035156 1147.308594 427.953125 1150.578125 C 428.1875 1151.390625 428.402344 1152.210938 428.65625 1153.019531 L 429.46875 1155.441406 L 431.089844 1160.269531 C 433.265625 1166.699219 435.441406 1173.148438 437.621094 1179.601562 C 447.082031 1205.148438 458.289062 1230.160156 471.167969 1254.308594 L 481.210938 1272.199219 C 484.8125 1278.019531 488.414062 1283.828125 492.015625 1289.640625 L 494.726562 1293.988281 L 503.398438 1306.679688 C 505.339844 1309.488281 507.222656 1312.328125 509.210938 1315.101562 L 515.347656 1323.289062 C 531.632812 1345.140625 549.464844 1365.71875 568.671875 1384.578125 L 572.214844 1388.171875 C 573.402344 1389.359375 574.660156 1390.480469 575.882812 1391.628906 C 578.339844 1393.921875 580.792969 1396.199219 583.246094 1398.480469 C 585.699219 1400.761719 588.152344 1403.039062 590.597656 1405.308594 C 593.140625 1407.488281 595.679688 1409.648438 598.214844 1411.820312 C 608.246094 1420.609375 618.8125 1428.640625 629.273438 1436.640625 C 634.640625 1440.460938 639.992188 1444.269531 645.324219 1448.070312 C 647.957031 1450.011719 650.757812 1451.710938 653.476562 1453.511719 C 656.210938 1455.28125 658.941406 1457.050781 661.671875 1458.820312 L 665.757812 1461.460938 L 667.796875 1462.78125 L 669.886719 1464.019531 C 672.675781 1465.660156 675.460938 1467.300781 678.238281 1468.929688 C 681.019531 1470.558594 683.796875 1472.191406 686.5625 1473.820312 L 688.640625 1475.03125 L 690.792969 1476.171875 L 695.085938 1478.460938 C 706.449219 1484.679688 718.179688 1489.929688 729.855469 1494.871094 C 735.769531 1497.140625 741.585938 1499.601562 747.515625 1501.578125 C 750.46875 1502.621094 753.410156 1503.648438 756.347656 1504.671875 C 759.304688 1505.609375 762.257812 1506.539062 765.199219 1507.480469 L 769.605469 1508.859375 L 774.023438 1510.121094 C 776.96875 1510.960938 779.898438 1511.800781 782.824219 1512.628906 C 785.757812 1513.390625 788.683594 1514.140625 791.605469 1514.898438 C 794.519531 1515.660156 797.429688 1516.410156 800.335938 1517.058594" fill="#e7a811"/></g><g id="change2_38"><path d="M 1146.910156 1598.441406 C 1126.039062 1587.941406 1100.359375 1575.71875 1069.960938 1563.769531 C 1063.261719 1561.140625 1056.328125 1558.53125 1049.179688 1555.941406 C 1046.300781 1556.519531 1043.46875 1557.101562 1040.710938 1557.679688 C 1034.03125 1559.070312 1027.398438 1560.539062 1020.800781 1562.039062 C 1036.699219 1566.308594 1051.738281 1570.761719 1065.851562 1575.289062 C 1096.488281 1585.210938 1122.808594 1595.269531 1144.269531 1604.148438 C 1165.609375 1613.28125 1182.328125 1620.691406 1193.570312 1626.101562 C 1204.839844 1631.449219 1210.851562 1634.300781 1210.851562 1634.300781 C 1210.851562 1634.300781 1205.140625 1630.890625 1194.410156 1624.488281 C 1183.628906 1618.191406 1167.710938 1609.089844 1146.910156 1598.441406" fill="#e7a811"/></g><g id="change2_39"><path d="M 805.585938 1624.488281 C 816.367188 1618.191406 832.292969 1609.089844 853.09375 1598.441406 C 873.957031 1587.941406 899.644531 1575.71875 930.042969 1563.769531 C 960.429688 1551.839844 995.527344 1540.191406 1034.449219 1530.03125 C 1053.898438 1524.941406 1074.28125 1520.179688 1095.351562 1515.539062 C 1116.410156 1510.871094 1138.171875 1506.339844 1160.210938 1501.171875 C 1165.710938 1499.871094 1171.261719 1498.570312 1176.78125 1497.148438 C 1182.339844 1495.800781 1187.871094 1494.300781 1193.429688 1492.789062 C 1196.21875 1492.058594 1198.980469 1491.25 1201.75 1490.429688 C 1204.519531 1489.621094 1207.300781 1488.808594 1210.089844 1487.988281 C 1212.839844 1487.109375 1215.609375 1486.230469 1218.378906 1485.351562 L 1222.550781 1484.019531 L 1226.671875 1482.578125 C 1229.421875 1481.621094 1232.179688 1480.660156 1234.949219 1479.691406 C 1237.679688 1478.640625 1240.410156 1477.589844 1243.160156 1476.539062 C 1248.679688 1474.53125 1254.03125 1472.070312 1259.488281 1469.808594 C 1270.238281 1464.921875 1281 1459.789062 1291.378906 1453.789062 L 1297.261719 1450.460938 L 1299.199219 1449.261719 C 1301.789062 1447.648438 1304.390625 1446.039062 1307 1444.429688 C 1309.601562 1442.820312 1312.210938 1441.210938 1314.820312 1439.589844 L 1316.78125 1438.378906 L 1318.691406 1437.089844 L 1322.519531 1434.5 C 1325.078125 1432.769531 1327.628906 1431.039062 1330.199219 1429.308594 C 1332.738281 1427.550781 1335.378906 1425.910156 1337.828125 1424.011719 C 1342.828125 1420.328125 1347.839844 1416.628906 1352.859375 1412.921875 C 1362.640625 1405.148438 1372.511719 1397.378906 1381.859375 1388.890625 C 1384.230469 1386.820312 1386.609375 1384.738281 1388.988281 1382.660156 C 1391.28125 1380.480469 1393.578125 1378.300781 1395.871094 1376.121094 C 1398.171875 1373.929688 1400.460938 1371.738281 1402.761719 1369.550781 C 1403.910156 1368.449219 1405.089844 1367.390625 1406.199219 1366.25 L 1409.511719 1362.808594 C 1427.519531 1344.828125 1444 1325.089844 1459.359375 1304.460938 L 1465.128906 1296.71875 C 1467 1294.101562 1468.761719 1291.398438 1470.578125 1288.738281 L 1476.011719 1280.738281 L 1478.730469 1276.738281 L 1481.269531 1272.621094 C 1484.648438 1267.128906 1488.03125 1261.628906 1491.421875 1256.128906 L 1500.828125 1239.199219 C 1513.058594 1216.441406 1523.699219 1192.839844 1532.761719 1168.730469 C 1534.851562 1162.640625 1536.941406 1156.558594 1539.03125 1150.480469 L 1540.601562 1145.929688 L 1541.378906 1143.648438 C 1541.628906 1142.890625 1541.839844 1142.109375 1542.058594 1141.339844 C 1542.949219 1138.261719 1543.839844 1135.179688 1544.730469 1132.109375 C 1545.621094 1129.03125 1546.511719 1125.949219 1547.398438 1122.878906 C 1548.300781 1119.808594 1549.230469 1116.75 1549.898438 1113.628906 C 1551.378906 1107.421875 1552.851562 1101.210938 1554.320312 1095.019531 C 1554.679688 1093.46875 1555.078125 1091.929688 1555.398438 1090.378906 L 1556.261719 1085.691406 C 1556.839844 1082.570312 1557.410156 1079.449219 1557.988281 1076.328125 C 1558.558594 1073.21875 1559.140625 1070.101562 1559.710938 1066.988281 L 1560.140625 1064.660156 C 1560.269531 1063.878906 1560.351562 1063.101562 1560.460938 1062.320312 L 1561.078125 1057.621094 C 1561.941406 1051.371094 1562.789062 1045.140625 1563.640625 1038.921875 C 1564.269531 1032.679688 1564.738281 1026.429688 1565.300781 1020.21875 C 1565.550781 1017.109375 1565.871094 1014 1566.070312 1010.898438 C 1566.179688 1007.789062 1566.289062 1004.679688 1566.398438 1001.578125 C 1566.519531 998.480469 1566.628906 995.390625 1566.738281 992.300781 L 1566.910156 987.660156 L 1567 985.351562 L 1566.96875 983.039062 C 1566.769531 970.710938 1566.921875 958.460938 1565.960938 946.339844 C 1563.390625 897.769531 1553.730469 851.328125 1540.199219 808.710938 C 1539.449219 806.019531 1538.480469 803.398438 1537.550781 800.78125 C 1536.628906 798.171875 1535.699219 795.558594 1534.78125 792.960938 C 1533.859375 790.359375 1532.949219 787.761719 1532.03125 785.179688 L 1530.660156 781.308594 L 1529.121094 777.53125 C 1524.929688 767.488281 1521.179688 757.421875 1516.511719 747.960938 C 1514.300781 743.160156 1512.109375 738.410156 1509.941406 733.699219 C 1507.539062 729.101562 1505.171875 724.539062 1502.820312 720.019531 C 1501.640625 717.761719 1500.46875 715.5 1499.300781 713.261719 C 1498.710938 712.148438 1498.171875 711.011719 1497.53125 709.921875 C 1496.898438 708.839844 1496.269531 707.761719 1495.640625 706.679688 C 1493.121094 702.351562 1490.621094 698.070312 1488.148438 693.839844 C 1468.121094 660.070312 1446.140625 631.21875 1424.761719 607.328125 C 1403.351562 583.449219 1382.738281 564.328125 1365.070312 549.351562 C 1360.648438 545.679688 1356.308594 542.398438 1352.320312 539.179688 C 1349.570312 541.921875 1345.851562 543.699219 1341.5 544.589844 C 1339.328125 545.03125 1337 545.261719 1334.539062 545.269531 C 1332.101562 545.25 1329.410156 545.21875 1326.699219 544.878906 C 1321.238281 544.25 1315.429688 542.808594 1309.519531 540.570312 C 1308.03125 540.019531 1306.578125 539.359375 1305.050781 538.761719 C 1303.519531 538.171875 1301.988281 537.53125 1300.449219 536.839844 C 1297.378906 535.460938 1294.308594 533.878906 1291.269531 532.101562 C 1282.289062 526.53125 1273.351562 520.191406 1265.320312 512.75 C 1264.320312 511.808594 1263.320312 510.878906 1262.328125 509.949219 C 1261.351562 509 1260.320312 508.171875 1259.328125 507.261719 C 1257.351562 505.46875 1255.410156 503.648438 1253.53125 501.820312 C 1249.761719 498.171875 1246.210938 494.488281 1242.929688 490.929688 C 1241.300781 489.101562 1239.660156 487.5 1238.121094 485.890625 C 1236.578125 484.289062 1235.121094 482.730469 1233.730469 481.238281 C 1232.328125 479.710938 1231.011719 478.261719 1229.789062 476.898438 C 1175.910156 455.960938 1128.128906 446.910156 1128.128906 446.910156 C 1157.230469 446.808594 1196.300781 455.671875 1228.378906 464.660156 C 1228.878906 464.609375 1229.390625 464.558594 1229.929688 464.511719 C 1232.980469 464.210938 1236.660156 463.921875 1240.859375 463.699219 C 1242.960938 463.589844 1245.191406 463.511719 1247.519531 463.449219 C 1249.859375 463.390625 1252.328125 463.320312 1254.808594 463.480469 C 1259.800781 463.710938 1265.160156 464.101562 1270.75 464.730469 C 1273.539062 465.050781 1276.390625 465.421875 1279.269531 465.859375 C 1280.699219 466.089844 1282.171875 466.28125 1283.589844 466.601562 C 1285.019531 466.910156 1286.449219 467.25 1287.890625 467.601562 C 1299.320312 470.46875 1311.191406 474.140625 1321.238281 480.320312 C 1324.628906 482.308594 1327.851562 484.421875 1330.871094 486.609375 C 1332.378906 487.699219 1333.839844 488.820312 1335.238281 489.949219 C 1336.640625 491.078125 1337.921875 492.351562 1339.179688 493.558594 C 1344.191406 498.480469 1348.300781 503.539062 1351.328125 508.480469 C 1352.828125 510.96875 1354.140625 513.328125 1355.03125 515.808594 C 1355.929688 518.261719 1356.558594 520.648438 1356.890625 522.921875 C 1357.558594 527.46875 1357.058594 531.601562 1355.308594 535.058594 C 1359.589844 537.96875 1364.230469 540.949219 1368.949219 544.339844 C 1387.878906 558.109375 1410.300781 575.828125 1433.679688 598.859375 C 1457.050781 621.851562 1481.308594 650.179688 1503.75 683.988281 C 1506.511719 688.261719 1509.289062 692.558594 1512.101562 696.910156 C 1512.808594 697.988281 1513.511719 699.089844 1514.21875 700.179688 C 1514.921875 701.269531 1515.539062 702.421875 1516.210938 703.539062 C 1517.519531 705.808594 1518.839844 708.078125 1520.171875 710.359375 C 1522.820312 714.929688 1525.5 719.550781 1528.199219 724.210938 C 1530.679688 728.980469 1533.191406 733.808594 1535.710938 738.671875 C 1540.941406 748.320312 1545.269531 758.601562 1550.03125 768.890625 L 1551.789062 772.769531 L 1553.378906 776.738281 C 1554.441406 779.390625 1555.5 782.050781 1556.570312 784.71875 C 1557.628906 787.398438 1558.710938 790.078125 1559.78125 792.769531 C 1560.851562 795.460938 1561.96875 798.160156 1562.871094 800.929688 C 1578.558594 844.878906 1590.238281 893.300781 1594.121094 944.359375 C 1595.46875 957.089844 1595.609375 970 1596.050781 982.988281 L 1596.121094 985.429688 L 1596.078125 987.871094 L 1595.988281 992.761719 C 1595.929688 996.019531 1595.871094 999.28125 1595.808594 1002.558594 C 1595.75 1005.828125 1595.691406 1009.109375 1595.621094 1012.390625 C 1595.46875 1015.671875 1595.199219 1018.949219 1594.988281 1022.238281 C 1594.519531 1028.808594 1594.140625 1035.421875 1593.589844 1042.03125 C 1592.808594 1048.609375 1592.03125 1055.21875 1591.238281 1061.839844 L 1590.640625 1066.800781 C 1590.53125 1067.628906 1590.449219 1068.460938 1590.320312 1069.289062 L 1589.890625 1071.761719 C 1589.320312 1075.050781 1588.75 1078.351562 1588.179688 1081.648438 C 1587.609375 1084.949219 1587.039062 1088.25 1586.460938 1091.558594 L 1585.601562 1096.53125 C 1585.28125 1098.179688 1584.878906 1099.808594 1584.519531 1101.449219 C 1583.039062 1108.019531 1581.558594 1114.601562 1580.078125 1121.191406 C 1579.398438 1124.5 1578.449219 1127.75 1577.539062 1131 C 1576.628906 1134.261719 1575.710938 1137.519531 1574.800781 1140.78125 C 1573.878906 1144.050781 1572.960938 1147.308594 1572.050781 1150.578125 C 1571.808594 1151.390625 1571.601562 1152.210938 1571.339844 1153.019531 L 1570.53125 1155.441406 L 1568.910156 1160.269531 C 1566.730469 1166.699219 1564.558594 1173.148438 1562.378906 1179.601562 C 1552.921875 1205.148438 1541.710938 1230.160156 1528.828125 1254.308594 L 1518.789062 1272.199219 C 1515.191406 1278.019531 1511.589844 1283.828125 1507.980469 1289.640625 L 1505.269531 1293.988281 L 1502.378906 1298.21875 L 1496.601562 1306.679688 C 1494.660156 1309.488281 1492.78125 1312.328125 1490.789062 1315.101562 L 1484.648438 1323.289062 C 1468.371094 1345.140625 1450.539062 1365.71875 1431.328125 1384.578125 L 1427.789062 1388.171875 C 1426.601562 1389.359375 1425.339844 1390.480469 1424.121094 1391.628906 C 1421.660156 1393.921875 1419.210938 1396.199219 1416.75 1398.480469 C 1414.300781 1400.761719 1411.851562 1403.039062 1409.398438 1405.308594 C 1406.859375 1407.488281 1404.320312 1409.648438 1401.789062 1411.820312 C 1391.75 1420.609375 1381.191406 1428.640625 1370.730469 1436.640625 C 1365.359375 1440.460938 1360.011719 1444.269531 1354.671875 1448.070312 C 1352.039062 1450.011719 1349.238281 1451.710938 1346.519531 1453.511719 C 1343.789062 1455.28125 1341.058594 1457.050781 1338.328125 1458.820312 L 1334.238281 1461.460938 L 1332.199219 1462.78125 L 1330.109375 1464.019531 C 1327.320312 1465.660156 1324.539062 1467.300781 1321.761719 1468.929688 C 1318.980469 1470.558594 1316.210938 1472.191406 1313.441406 1473.820312 L 1311.359375 1475.03125 L 1309.210938 1476.171875 L 1304.910156 1478.460938 C 1293.550781 1484.679688 1281.820312 1489.929688 1270.140625 1494.871094 C 1264.230469 1497.140625 1258.410156 1499.601562 1252.480469 1501.578125 C 1249.53125 1502.621094 1246.589844 1503.648438 1243.648438 1504.671875 C 1240.691406 1505.609375 1237.738281 1506.539062 1234.800781 1507.480469 L 1230.390625 1508.859375 L 1225.980469 1510.121094 C 1223.03125 1510.960938 1220.101562 1511.800781 1217.179688 1512.628906 C 1214.238281 1513.390625 1211.320312 1514.140625 1208.398438 1514.898438 C 1205.480469 1515.660156 1202.570312 1516.410156 1199.660156 1517.058594 C 1193.851562 1518.441406 1188.078125 1519.789062 1182.328125 1520.980469 C 1176.589844 1522.25 1170.890625 1523.378906 1165.230469 1524.5 C 1142.570312 1528.949219 1120.609375 1532.609375 1099.480469 1536.351562 C 1078.351562 1540.070312 1058.050781 1543.828125 1038.660156 1547.898438 C 999.886719 1555.96875 964.835938 1565.441406 934.152344 1575.289062 C 903.503906 1585.210938 877.183594 1595.269531 855.734375 1604.148438 C 834.394531 1613.28125 817.667969 1620.691406 806.433594 1626.101562 C 795.160156 1631.449219 789.148438 1634.300781 789.148438 1634.300781 C 789.148438 1634.300781 794.863281 1630.890625 805.585938 1624.488281" fill="#e7a811"/></g></g></svg>