<?xml version="1.0" encoding="UTF-8" standalone="no"?><svg xmlns="http://www.w3.org/2000/svg" xmlns:xlink="http://www.w3.org/1999/xlink" fill="#079cff" height="728.9" preserveAspectRatio="xMidYMid meet" version="1" viewBox="-0.4 0.0 815.4 728.9" width="815.4" zoomAndPan="magnify"><g id="change1_1"><path d="M9.352,440.933a4.676,4.676,0,1,1-4.676-4.676A4.677,4.677,0,0,1,9.352,440.933Zm53.092-4.676a4.676,4.676,0,1,0,4.676,4.676A4.676,4.676,0,0,0,62.444,436.257Zm57.768,0a4.676,4.676,0,1,0,4.676,4.676A4.676,4.676,0,0,0,120.212,436.257Zm57.768,0a4.676,4.676,0,1,0,4.676,4.676A4.676,4.676,0,0,0,177.98,436.257Zm57.768,0a4.676,4.676,0,1,0,4.676,4.676A4.676,4.676,0,0,0,235.748,436.257ZM4.676,387.759a4.676,4.676,0,1,0,4.676,4.676A4.677,4.677,0,0,0,4.676,387.759Zm57.768,0a4.676,4.676,0,1,0,4.676,4.676A4.677,4.677,0,0,0,62.444,387.759Zm57.768,0a4.676,4.676,0,1,0,4.676,4.676A4.677,4.677,0,0,0,120.212,387.759Zm57.768,0a4.676,4.676,0,1,0,4.676,4.676A4.677,4.677,0,0,0,177.98,387.759Zm57.768,0a4.676,4.676,0,1,0,4.676,4.676A4.677,4.677,0,0,0,235.748,387.759ZM4.676,493.867a4.676,4.676,0,1,0,4.676,4.676A4.676,4.676,0,0,0,4.676,493.867Zm57.768,0a4.676,4.676,0,1,0,4.676,4.676A4.676,4.676,0,0,0,62.444,493.867Zm57.768,0a4.676,4.676,0,1,0,4.676,4.676A4.676,4.676,0,0,0,120.212,493.867Zm57.768,0a4.676,4.676,0,1,0,4.676,4.676A4.676,4.676,0,0,0,177.98,493.867Zm57.768,0a4.676,4.676,0,1,0,4.676,4.676A4.676,4.676,0,0,0,235.748,493.867ZM4.676,551.476a4.676,4.676,0,1,0,4.676,4.676A4.677,4.677,0,0,0,4.676,551.476Zm57.768,0a4.676,4.676,0,1,0,4.676,4.676A4.677,4.677,0,0,0,62.444,551.476Zm57.768,0a4.676,4.676,0,1,0,4.676,4.676A4.677,4.677,0,0,0,120.212,551.476Zm57.768,0a4.676,4.676,0,1,0,4.676,4.676A4.677,4.677,0,0,0,177.98,551.476Zm57.768,0a4.676,4.676,0,1,0,4.676,4.676A4.677,4.677,0,0,0,235.748,551.476ZM4.676,609.086a4.676,4.676,0,1,0,4.676,4.676A4.677,4.677,0,0,0,4.676,609.086Zm57.768,0a4.676,4.676,0,1,0,4.676,4.676A4.677,4.677,0,0,0,62.444,609.086Zm57.768,0a4.676,4.676,0,1,0,4.676,4.676A4.677,4.677,0,0,0,120.212,609.086Zm57.768,0a4.676,4.676,0,1,0,4.676,4.676A4.677,4.677,0,0,0,177.98,609.086Zm57.768,0a4.676,4.676,0,1,0,4.676,4.676A4.677,4.677,0,0,0,235.748,609.086ZM4.676,666.7a4.676,4.676,0,1,0,4.676,4.676A4.676,4.676,0,0,0,4.676,666.7Zm57.768,0a4.676,4.676,0,1,0,4.676,4.676A4.676,4.676,0,0,0,62.444,666.7Zm57.768,0a4.676,4.676,0,1,0,4.676,4.676A4.676,4.676,0,0,0,120.212,666.7Zm57.768,0a4.676,4.676,0,1,0,4.676,4.676A4.676,4.676,0,0,0,177.98,666.7Zm57.768,0a4.676,4.676,0,1,0,4.676,4.676A4.676,4.676,0,0,0,235.748,666.7ZM4.676,719.5a4.676,4.676,0,1,0,4.676,4.676A4.677,4.677,0,0,0,4.676,719.5Zm57.768,0a4.676,4.676,0,1,0,4.676,4.676A4.677,4.677,0,0,0,62.444,719.5Zm57.768,0a4.676,4.676,0,1,0,4.676,4.676A4.677,4.677,0,0,0,120.212,719.5Zm57.768,0a4.676,4.676,0,1,0,4.676,4.676A4.677,4.677,0,0,0,177.98,719.5Zm57.768,0a4.676,4.676,0,1,0,4.676,4.676A4.677,4.677,0,0,0,235.748,719.5ZM292.1,436.257a4.676,4.676,0,1,0,4.676,4.676A4.676,4.676,0,0,0,292.1,436.257Zm57.768,0a4.676,4.676,0,1,0,4.676,4.676A4.676,4.676,0,0,0,349.867,436.257Zm57.768,0a4.676,4.676,0,1,0,4.676,4.676A4.676,4.676,0,0,0,407.635,436.257Zm57.768,0a4.676,4.676,0,1,0,4.676,4.676A4.676,4.676,0,0,0,465.4,436.257Zm57.768,0a4.676,4.676,0,1,0,4.676,4.676A4.676,4.676,0,0,0,523.171,436.257ZM292.1,387.759a4.676,4.676,0,1,0,4.676,4.676A4.677,4.677,0,0,0,292.1,387.759Zm57.768,0a4.676,4.676,0,1,0,4.676,4.676A4.677,4.677,0,0,0,349.867,387.759Zm57.768,0a4.676,4.676,0,1,0,4.676,4.676A4.677,4.677,0,0,0,407.635,387.759Zm57.768,0a4.676,4.676,0,1,0,4.676,4.676A4.677,4.677,0,0,0,465.4,387.759Zm57.768,0a4.676,4.676,0,1,0,4.676,4.676A4.677,4.677,0,0,0,523.171,387.759ZM292.1,493.867a4.676,4.676,0,1,0,4.676,4.676A4.676,4.676,0,0,0,292.1,493.867Zm57.768,0a4.676,4.676,0,1,0,4.676,4.676A4.676,4.676,0,0,0,349.867,493.867Zm57.768,0a4.676,4.676,0,1,0,4.676,4.676A4.676,4.676,0,0,0,407.635,493.867Zm57.768,0a4.676,4.676,0,1,0,4.676,4.676A4.676,4.676,0,0,0,465.4,493.867Zm57.768,0a4.676,4.676,0,1,0,4.676,4.676A4.676,4.676,0,0,0,523.171,493.867ZM292.1,551.476a4.676,4.676,0,1,0,4.676,4.676A4.677,4.677,0,0,0,292.1,551.476Zm57.768,0a4.676,4.676,0,1,0,4.676,4.676A4.677,4.677,0,0,0,349.867,551.476Zm57.768,0a4.676,4.676,0,1,0,4.676,4.676A4.677,4.677,0,0,0,407.635,551.476Zm57.768,0a4.676,4.676,0,1,0,4.676,4.676A4.677,4.677,0,0,0,465.4,551.476Zm57.768,0a4.676,4.676,0,1,0,4.676,4.676A4.677,4.677,0,0,0,523.171,551.476ZM292.1,609.086a4.676,4.676,0,1,0,4.676,4.676A4.677,4.677,0,0,0,292.1,609.086Zm57.768,0a4.676,4.676,0,1,0,4.676,4.676A4.677,4.677,0,0,0,349.867,609.086Zm57.768,0a4.676,4.676,0,1,0,4.676,4.676A4.677,4.677,0,0,0,407.635,609.086Zm57.768,0a4.676,4.676,0,1,0,4.676,4.676A4.677,4.677,0,0,0,465.4,609.086Zm57.768,0a4.676,4.676,0,1,0,4.676,4.676A4.677,4.677,0,0,0,523.171,609.086ZM292.1,666.7a4.676,4.676,0,1,0,4.676,4.676A4.676,4.676,0,0,0,292.1,666.7Zm57.768,0a4.676,4.676,0,1,0,4.676,4.676A4.676,4.676,0,0,0,349.867,666.7Zm57.768,0a4.676,4.676,0,1,0,4.676,4.676A4.676,4.676,0,0,0,407.635,666.7Zm57.768,0a4.676,4.676,0,1,0,4.676,4.676A4.676,4.676,0,0,0,465.4,666.7Zm57.768,0a4.676,4.676,0,1,0,4.676,4.676A4.676,4.676,0,0,0,523.171,666.7ZM292.1,719.5a4.676,4.676,0,1,0,4.676,4.676A4.677,4.677,0,0,0,292.1,719.5Zm57.768,0a4.676,4.676,0,1,0,4.676,4.676A4.677,4.677,0,0,0,349.867,719.5Zm57.768,0a4.676,4.676,0,1,0,4.676,4.676A4.677,4.677,0,0,0,407.635,719.5Zm57.768,0a4.676,4.676,0,1,0,4.676,4.676A4.677,4.677,0,0,0,465.4,719.5Zm57.768,0a4.676,4.676,0,1,0,4.676,4.676A4.677,4.677,0,0,0,523.171,719.5ZM4.71,50.3a4.676,4.676,0,1,0,4.676,4.676A4.677,4.677,0,0,0,4.71,50.3Zm57.768,0a4.676,4.676,0,1,0,4.676,4.676A4.677,4.677,0,0,0,62.478,50.3Zm57.768,0a4.676,4.676,0,1,0,4.676,4.676A4.677,4.677,0,0,0,120.246,50.3Zm57.768,0a4.676,4.676,0,1,0,4.676,4.676A4.677,4.677,0,0,0,178.014,50.3Zm57.768,0a4.676,4.676,0,1,0,4.676,4.676A4.677,4.677,0,0,0,235.782,50.3ZM4.71,1.8A4.676,4.676,0,1,0,9.386,6.478,4.677,4.677,0,0,0,4.71,1.8Zm57.768,0a4.676,4.676,0,1,0,4.676,4.676A4.677,4.677,0,0,0,62.478,1.8Zm57.768,0a4.676,4.676,0,1,0,4.676,4.676A4.677,4.677,0,0,0,120.246,1.8Zm57.768,0a4.676,4.676,0,1,0,4.676,4.676A4.677,4.677,0,0,0,178.014,1.8Zm57.768,0a4.676,4.676,0,1,0,4.676,4.676A4.677,4.677,0,0,0,235.782,1.8ZM4.71,107.91a4.676,4.676,0,1,0,4.676,4.676A4.676,4.676,0,0,0,4.71,107.91Zm57.768,0a4.676,4.676,0,1,0,4.676,4.676A4.676,4.676,0,0,0,62.478,107.91Zm57.768,0a4.676,4.676,0,1,0,4.676,4.676A4.676,4.676,0,0,0,120.246,107.91Zm57.768,0a4.676,4.676,0,1,0,4.676,4.676A4.676,4.676,0,0,0,178.014,107.91Zm57.768,0a4.676,4.676,0,1,0,4.676,4.676A4.676,4.676,0,0,0,235.782,107.91ZM4.71,165.519A4.676,4.676,0,1,0,9.386,170.2,4.677,4.677,0,0,0,4.71,165.519Zm57.768,0a4.676,4.676,0,1,0,4.676,4.676A4.677,4.677,0,0,0,62.478,165.519Zm57.768,0a4.676,4.676,0,1,0,4.676,4.676A4.677,4.677,0,0,0,120.246,165.519Zm57.768,0a4.676,4.676,0,1,0,4.676,4.676A4.677,4.677,0,0,0,178.014,165.519Zm57.768,0a4.676,4.676,0,1,0,4.676,4.676A4.677,4.677,0,0,0,235.782,165.519ZM4.71,223.129a4.676,4.676,0,1,0,4.676,4.676A4.677,4.677,0,0,0,4.71,223.129Zm57.768,0a4.676,4.676,0,1,0,4.676,4.676A4.677,4.677,0,0,0,62.478,223.129Zm57.768,0a4.676,4.676,0,1,0,4.676,4.676A4.677,4.677,0,0,0,120.246,223.129Zm57.768,0a4.676,4.676,0,1,0,4.676,4.676A4.677,4.677,0,0,0,178.014,223.129Zm57.768,0a4.676,4.676,0,1,0,4.676,4.676A4.677,4.677,0,0,0,235.782,223.129ZM4.71,280.739a4.676,4.676,0,1,0,4.676,4.676A4.676,4.676,0,0,0,4.71,280.739Zm57.768,0a4.676,4.676,0,1,0,4.676,4.676A4.676,4.676,0,0,0,62.478,280.739Zm57.768,0a4.676,4.676,0,1,0,4.676,4.676A4.676,4.676,0,0,0,120.246,280.739Zm57.768,0a4.676,4.676,0,1,0,4.676,4.676A4.676,4.676,0,0,0,178.014,280.739Zm57.768,0a4.676,4.676,0,1,0,4.676,4.676A4.676,4.676,0,0,0,235.782,280.739ZM4.71,333.542a4.676,4.676,0,1,0,4.676,4.676A4.677,4.677,0,0,0,4.71,333.542Zm57.768,0a4.676,4.676,0,1,0,4.676,4.676A4.677,4.677,0,0,0,62.478,333.542Zm57.768,0a4.676,4.676,0,1,0,4.676,4.676A4.677,4.677,0,0,0,120.246,333.542Zm57.768,0a4.676,4.676,0,1,0,4.676,4.676A4.677,4.677,0,0,0,178.014,333.542Zm57.768,0a4.676,4.676,0,1,0,4.676,4.676A4.677,4.677,0,0,0,235.782,333.542ZM292.134,50.3a4.676,4.676,0,1,0,4.676,4.676A4.676,4.676,0,0,0,292.134,50.3Zm57.768,0a4.676,4.676,0,1,0,4.676,4.676A4.676,4.676,0,0,0,349.9,50.3Zm57.768,0a4.676,4.676,0,1,0,4.676,4.676A4.676,4.676,0,0,0,407.67,50.3Zm57.768,0a4.676,4.676,0,1,0,4.676,4.676A4.676,4.676,0,0,0,465.438,50.3Zm57.768,0a4.676,4.676,0,1,0,4.676,4.676A4.676,4.676,0,0,0,523.206,50.3ZM292.134,1.8a4.676,4.676,0,1,0,4.676,4.676A4.676,4.676,0,0,0,292.134,1.8Zm57.768,0a4.676,4.676,0,1,0,4.676,4.676A4.676,4.676,0,0,0,349.9,1.8Zm57.768,0a4.676,4.676,0,1,0,4.676,4.676A4.676,4.676,0,0,0,407.67,1.8Zm57.768,0a4.676,4.676,0,1,0,4.676,4.676A4.676,4.676,0,0,0,465.438,1.8Zm57.768,0a4.676,4.676,0,1,0,4.676,4.676A4.676,4.676,0,0,0,523.206,1.8ZM292.134,107.91a4.676,4.676,0,1,0,4.676,4.676A4.675,4.675,0,0,0,292.134,107.91Zm57.768,0a4.676,4.676,0,1,0,4.676,4.676A4.675,4.675,0,0,0,349.9,107.91Zm57.768,0a4.676,4.676,0,1,0,4.676,4.676A4.675,4.675,0,0,0,407.67,107.91Zm57.768,0a4.676,4.676,0,1,0,4.676,4.676A4.675,4.675,0,0,0,465.438,107.91Zm57.768,0a4.676,4.676,0,1,0,4.676,4.676A4.675,4.675,0,0,0,523.206,107.91ZM292.134,165.519a4.676,4.676,0,1,0,4.676,4.676A4.676,4.676,0,0,0,292.134,165.519Zm57.768,0a4.676,4.676,0,1,0,4.676,4.676A4.676,4.676,0,0,0,349.9,165.519Zm57.768,0a4.676,4.676,0,1,0,4.676,4.676A4.676,4.676,0,0,0,407.67,165.519Zm57.768,0a4.676,4.676,0,1,0,4.676,4.676A4.676,4.676,0,0,0,465.438,165.519Zm57.768,0a4.676,4.676,0,1,0,4.676,4.676A4.676,4.676,0,0,0,523.206,165.519Zm-231.072,57.61a4.676,4.676,0,1,0,4.676,4.676A4.676,4.676,0,0,0,292.134,223.129Zm57.768,0a4.676,4.676,0,1,0,4.676,4.676A4.676,4.676,0,0,0,349.9,223.129Zm57.768,0a4.676,4.676,0,1,0,4.676,4.676A4.676,4.676,0,0,0,407.67,223.129Zm57.768,0a4.676,4.676,0,1,0,4.676,4.676A4.676,4.676,0,0,0,465.438,223.129Zm57.768,0a4.676,4.676,0,1,0,4.676,4.676A4.676,4.676,0,0,0,523.206,223.129Zm-231.072,57.61a4.676,4.676,0,1,0,4.676,4.676A4.675,4.675,0,0,0,292.134,280.739Zm57.768,0a4.676,4.676,0,1,0,4.676,4.676A4.675,4.675,0,0,0,349.9,280.739Zm57.768,0a4.676,4.676,0,1,0,4.676,4.676A4.675,4.675,0,0,0,407.67,280.739Zm57.768,0a4.676,4.676,0,1,0,4.676,4.676A4.675,4.675,0,0,0,465.438,280.739Zm57.768,0a4.676,4.676,0,1,0,4.676,4.676A4.675,4.675,0,0,0,523.206,280.739Zm-231.072,52.8a4.676,4.676,0,1,0,4.676,4.676A4.676,4.676,0,0,0,292.134,333.542Zm57.768,0a4.676,4.676,0,1,0,4.676,4.676A4.676,4.676,0,0,0,349.9,333.542Zm57.768,0a4.676,4.676,0,1,0,4.676,4.676A4.676,4.676,0,0,0,407.67,333.542Zm57.768,0a4.676,4.676,0,1,0,4.676,4.676A4.676,4.676,0,0,0,465.438,333.542Zm57.768,0a4.676,4.676,0,1,0,4.676,4.676A4.676,4.676,0,0,0,523.206,333.542Zm56.026,100.913a4.676,4.676,0,1,0,4.676,4.676A4.675,4.675,0,0,0,579.232,434.455Zm57.768,0a4.676,4.676,0,1,0,4.676,4.676A4.675,4.675,0,0,0,637,434.455Zm57.768,0a4.676,4.676,0,1,0,4.676,4.676A4.675,4.675,0,0,0,694.768,434.455Zm57.768,0a4.676,4.676,0,1,0,4.676,4.676A4.675,4.675,0,0,0,752.536,434.455Zm57.768,0a4.676,4.676,0,1,0,4.676,4.676A4.675,4.675,0,0,0,810.3,434.455Zm-231.072-48.5a4.676,4.676,0,1,0,4.676,4.676A4.675,4.675,0,0,0,579.232,385.957Zm57.768,0a4.676,4.676,0,1,0,4.676,4.676A4.675,4.675,0,0,0,637,385.957Zm57.768,0a4.676,4.676,0,1,0,4.676,4.676A4.675,4.675,0,0,0,694.768,385.957Zm57.768,0a4.676,4.676,0,1,0,4.676,4.676A4.675,4.675,0,0,0,752.536,385.957Zm57.768,0a4.676,4.676,0,1,0,4.676,4.676A4.675,4.675,0,0,0,810.3,385.957ZM579.232,492.064a4.676,4.676,0,1,0,4.676,4.676A4.676,4.676,0,0,0,579.232,492.064Zm57.768,0a4.676,4.676,0,1,0,4.676,4.676A4.676,4.676,0,0,0,637,492.064Zm57.768,0a4.676,4.676,0,1,0,4.676,4.676A4.676,4.676,0,0,0,694.768,492.064Zm57.768,0a4.676,4.676,0,1,0,4.676,4.676A4.676,4.676,0,0,0,752.536,492.064Zm57.768,0a4.676,4.676,0,1,0,4.676,4.676A4.676,4.676,0,0,0,810.3,492.064Zm-231.072,57.61a4.676,4.676,0,1,0,4.676,4.676A4.676,4.676,0,0,0,579.232,549.674Zm57.768,0a4.676,4.676,0,1,0,4.676,4.676A4.676,4.676,0,0,0,637,549.674Zm57.768,0a4.676,4.676,0,1,0,4.676,4.676A4.676,4.676,0,0,0,694.768,549.674Zm57.768,0a4.676,4.676,0,1,0,4.676,4.676A4.676,4.676,0,0,0,752.536,549.674Zm57.768,0a4.676,4.676,0,1,0,4.676,4.676A4.676,4.676,0,0,0,810.3,549.674Zm-231.072,57.61a4.676,4.676,0,1,0,4.676,4.676A4.675,4.675,0,0,0,579.232,607.284Zm57.768,0a4.676,4.676,0,1,0,4.676,4.676A4.675,4.675,0,0,0,637,607.284Zm57.768,0a4.676,4.676,0,1,0,4.676,4.676A4.675,4.675,0,0,0,694.768,607.284Zm57.768,0a4.676,4.676,0,1,0,4.676,4.676A4.675,4.675,0,0,0,752.536,607.284Zm57.768,0a4.676,4.676,0,1,0,4.676,4.676A4.675,4.675,0,0,0,810.3,607.284Zm-231.072,57.61a4.676,4.676,0,1,0,4.676,4.676A4.675,4.675,0,0,0,579.232,664.894Zm57.768,0a4.676,4.676,0,1,0,4.676,4.676A4.675,4.675,0,0,0,637,664.894Zm57.768,0a4.676,4.676,0,1,0,4.676,4.676A4.675,4.675,0,0,0,694.768,664.894Zm57.768,0a4.676,4.676,0,1,0,4.676,4.676A4.675,4.675,0,0,0,752.536,664.894Zm57.768,0a4.676,4.676,0,1,0,4.676,4.676A4.675,4.675,0,0,0,810.3,664.894ZM579.232,717.7a4.676,4.676,0,1,0,4.676,4.676A4.675,4.675,0,0,0,579.232,717.7Zm57.768,0a4.676,4.676,0,1,0,4.676,4.676A4.675,4.675,0,0,0,637,717.7Zm57.768,0a4.676,4.676,0,1,0,4.676,4.676A4.675,4.675,0,0,0,694.768,717.7Zm57.768,0a4.676,4.676,0,1,0,4.676,4.676A4.675,4.675,0,0,0,752.536,717.7Zm57.768,0a4.676,4.676,0,1,0,4.676,4.676A4.675,4.675,0,0,0,810.3,717.7ZM579.266,48.5a4.676,4.676,0,1,0,4.676,4.676A4.676,4.676,0,0,0,579.266,48.5Zm57.768,0a4.676,4.676,0,1,0,4.676,4.676A4.676,4.676,0,0,0,637.034,48.5Zm57.768,0a4.676,4.676,0,1,0,4.676,4.676A4.676,4.676,0,0,0,694.8,48.5Zm57.768,0a4.676,4.676,0,1,0,4.676,4.676A4.676,4.676,0,0,0,752.57,48.5Zm57.768,0a4.676,4.676,0,1,0,4.676,4.676A4.676,4.676,0,0,0,810.338,48.5ZM579.266,0a4.676,4.676,0,1,0,4.676,4.676A4.677,4.677,0,0,0,579.266,0Zm57.768,0a4.676,4.676,0,1,0,4.676,4.676A4.677,4.677,0,0,0,637.034,0ZM694.8,0a4.676,4.676,0,1,0,4.676,4.676A4.677,4.677,0,0,0,694.8,0ZM752.57,0a4.676,4.676,0,1,0,4.676,4.676A4.677,4.677,0,0,0,752.57,0Zm57.768,0a4.676,4.676,0,1,0,4.676,4.676A4.677,4.677,0,0,0,810.338,0ZM579.266,106.108a4.676,4.676,0,1,0,4.676,4.676A4.676,4.676,0,0,0,579.266,106.108Zm57.768,0a4.676,4.676,0,1,0,4.676,4.676A4.676,4.676,0,0,0,637.034,106.108Zm57.768,0a4.676,4.676,0,1,0,4.676,4.676A4.676,4.676,0,0,0,694.8,106.108Zm57.768,0a4.676,4.676,0,1,0,4.676,4.676A4.676,4.676,0,0,0,752.57,106.108Zm57.768,0a4.676,4.676,0,1,0,4.676,4.676A4.676,4.676,0,0,0,810.338,106.108ZM579.266,163.717a4.676,4.676,0,1,0,4.676,4.676A4.677,4.677,0,0,0,579.266,163.717Zm57.768,0a4.676,4.676,0,1,0,4.676,4.676A4.677,4.677,0,0,0,637.034,163.717Zm57.768,0a4.676,4.676,0,1,0,4.676,4.676A4.677,4.677,0,0,0,694.8,163.717Zm57.768,0a4.676,4.676,0,1,0,4.676,4.676A4.677,4.677,0,0,0,752.57,163.717Zm57.768,0a4.676,4.676,0,1,0,4.676,4.676A4.677,4.677,0,0,0,810.338,163.717Zm-231.072,57.61A4.676,4.676,0,1,0,583.942,226,4.676,4.676,0,0,0,579.266,221.327Zm57.768,0A4.676,4.676,0,1,0,641.71,226,4.676,4.676,0,0,0,637.034,221.327Zm57.768,0A4.676,4.676,0,1,0,699.478,226,4.676,4.676,0,0,0,694.8,221.327Zm57.768,0A4.676,4.676,0,1,0,757.246,226,4.676,4.676,0,0,0,752.57,221.327Zm57.768,0A4.676,4.676,0,1,0,815.014,226,4.676,4.676,0,0,0,810.338,221.327Zm-231.072,57.61a4.676,4.676,0,1,0,4.676,4.676A4.676,4.676,0,0,0,579.266,278.937Zm57.768,0a4.676,4.676,0,1,0,4.676,4.676A4.676,4.676,0,0,0,637.034,278.937Zm57.768,0a4.676,4.676,0,1,0,4.676,4.676A4.676,4.676,0,0,0,694.8,278.937Zm57.768,0a4.676,4.676,0,1,0,4.676,4.676A4.676,4.676,0,0,0,752.57,278.937Zm57.768,0a4.676,4.676,0,1,0,4.676,4.676A4.676,4.676,0,0,0,810.338,278.937Zm-231.072,52.8a4.676,4.676,0,1,0,4.676,4.676A4.676,4.676,0,0,0,579.266,331.74Zm57.768,0a4.676,4.676,0,1,0,4.676,4.676A4.676,4.676,0,0,0,637.034,331.74Zm57.768,0a4.676,4.676,0,1,0,4.676,4.676A4.676,4.676,0,0,0,694.8,331.74Zm57.768,0a4.676,4.676,0,1,0,4.676,4.676A4.676,4.676,0,0,0,752.57,331.74Zm57.768,0a4.676,4.676,0,1,0,4.676,4.676A4.676,4.676,0,0,0,810.338,331.74Z"/></g></svg>