<?xml version="1.0" encoding="UTF-8"?><svg xmlns="http://www.w3.org/2000/svg" xmlns:xlink="http://www.w3.org/1999/xlink" height="1210.9" preserveAspectRatio="xMidYMid meet" version="1.0" viewBox="377.1 394.5 1245.7 1210.9" width="1245.7" zoomAndPan="magnify"><g><g id="change1_1"><path d="M 716.46875 712.910156 L 570.050781 566.488281 L 549.089844 587.449219 L 695.414062 733.769531 C 702.1875 726.570312 709.210938 719.621094 716.46875 712.910156" fill="#f68712"/></g><g id="change1_2"><path d="M 1429.949219 566.488281 L 1283.53125 712.910156 C 1290.789062 719.621094 1297.808594 726.570312 1304.578125 733.769531 L 1450.910156 587.449219 L 1429.949219 566.488281" fill="#f68712"/></g><g id="change1_3"><path d="M 1000 601.839844 C 1004.960938 601.839844 1009.898438 601.960938 1014.820312 602.128906 L 1014.820312 394.539062 L 985.183594 394.539062 L 985.183594 602.128906 C 990.105469 601.960938 995.039062 601.839844 1000 601.839844" fill="#f68712"/></g><g id="change1_4"><path d="M 377.136719 1002.578125 L 377.136719 1032.21875 L 581.945312 1032.21875 C 581.824219 1028.179688 581.757812 1024.140625 581.757812 1020.089844 C 581.757812 1014.21875 581.90625 1008.390625 582.148438 1002.578125 L 377.136719 1002.578125" fill="#f68712"/></g><g id="change1_5"><path d="M 692.761719 1303.691406 L 549.089844 1447.351562 L 570.050781 1468.308594 L 713.585938 1324.769531 C 706.375 1317.980469 699.445312 1310.941406 692.761719 1303.691406" fill="#f68712"/></g><g id="change1_6"><path d="M 1418.058594 1032.21875 L 1622.859375 1032.21875 L 1622.859375 1002.578125 L 1417.851562 1002.578125 C 1418.089844 1008.390625 1418.238281 1014.21875 1418.238281 1020.089844 C 1418.238281 1024.140625 1418.171875 1028.179688 1418.058594 1032.21875" fill="#f68712"/></g><g id="change1_7"><path d="M 1286.410156 1324.769531 L 1429.949219 1468.308594 L 1450.910156 1447.351562 L 1307.238281 1303.691406 C 1300.558594 1310.941406 1293.621094 1317.980469 1286.410156 1324.769531" fill="#f68712"/></g><g id="change1_8"><path d="M 1131.511719 623.039062 C 1140.929688 626.171875 1150.191406 629.621094 1159.289062 633.390625 L 1203.148438 516.019531 C 1194.050781 512.238281 1184.808594 508.699219 1175.460938 505.429688 L 1131.511719 623.039062" fill="#f68712"/></g><g id="change1_9"><path d="M 762.296875 531.839844 L 814.117188 645.488281 C 822.945312 641.101562 831.9375 637.011719 841.097656 633.21875 L 789.140625 519.289062 C 780.058594 523.21875 771.109375 527.410156 762.296875 531.839844" fill="#f68712"/></g><g id="change1_10"><path d="M 494.65625 844.421875 L 604.042969 885.289062 C 607.25 875.898438 610.777344 866.671875 614.617188 857.601562 L 504.480469 816.460938 C 500.941406 825.660156 497.671875 834.96875 494.65625 844.421875" fill="#f68712"/></g><g id="change1_11"><path d="M 515.328125 1222.121094 C 519.347656 1231.148438 523.628906 1240.070312 528.160156 1248.839844 L 624.863281 1204.75 C 620.492188 1195.898438 616.46875 1186.859375 612.734375 1177.710938 L 515.328125 1222.121094" fill="#f68712"/></g><g id="change1_12"><path d="M 1373 831.019531 C 1377.46875 839.808594 1381.660156 848.769531 1385.5 857.898438 L 1492.628906 809.039062 C 1488.941406 799.839844 1485.011719 790.789062 1480.828125 781.851562 L 1373 831.019531" fill="#f68712"/></g><g id="change1_13"><path d="M 1387.191406 1177.890625 L 1487.609375 1215.398438 C 1491.511719 1206.339844 1495.160156 1197.148438 1498.550781 1187.839844 L 1397.421875 1150.058594 C 1394.328125 1159.480469 1390.929688 1168.738281 1387.191406 1177.890625" fill="#f68712"/></g><g id="change2_1"><path d="M 1138.71875 1536.660156 L 861.28125 1536.660156 L 861.28125 1480.171875 L 1138.71875 1480.171875 L 1138.71875 1536.660156" fill="#393536"/></g><g id="change2_2"><path d="M 1102.5 1605.460938 L 897.5 1605.460938 L 897.5 1563.71875 L 1102.5 1563.71875 L 1102.5 1605.460938" fill="#393536"/></g><g id="change3_1"><path d="M 1224.441406 972.730469 L 1192.058594 1012.820312 C 1190.171875 1015.171875 1186.730469 1015.539062 1184.378906 1013.640625 C 1182.03125 1011.75 1181.660156 1008.300781 1183.558594 1005.949219 L 1215.261719 966.691406 L 1197.039062 954.730469 L 1151.339844 1011.320312 L 1146.898438 1007.738281 C 1145.828125 1009.308594 1144.679688 1010.851562 1143.46875 1012.351562 C 1118.28125 1043.539062 1072.589844 1048.410156 1041.398438 1023.230469 C 1010.210938 998.039062 1005.339844 952.339844 1030.53125 921.160156 C 1031.738281 919.648438 1033 918.210938 1034.308594 916.828125 L 1029.878906 913.25 L 1075.578125 856.648438 L 1012.039062 794.128906 C 1071.601562 826.410156 1203.101562 822.96875 1203.101562 822.96875 C 1203.101562 822.96875 1227.429688 952.25 1271.53125 1003.660156 Z M 1000 657.949219 C 804.148438 657.949219 645.378906 816.71875 645.378906 1012.570312 C 645.378906 1148.230469 721.570312 1266.070312 833.480469 1325.710938 C 826.230469 1129.238281 924.367188 1114.101562 912.011719 949.921875 C 903.058594 830.960938 936.46875 765.429688 936.46875 765.429688 C 921.136719 1082.539062 1133.628906 1128.730469 1291.730469 1094.589844 C 1291.730469 1094.589844 1274.648438 1117.691406 1140.078125 1144.800781 C 996.101562 1173.808594 897.5 1299.761719 987.949219 1453.058594 L 1151.070312 1453.058594 L 1151.070312 1333.46875 C 1271.359375 1276.738281 1354.621094 1154.390625 1354.621094 1012.570312 C 1354.621094 816.71875 1195.851562 657.949219 1000 657.949219" fill="#f18314"/></g></g></svg>