<?xml version="1.0" encoding="UTF-8"?><svg xmlns="http://www.w3.org/2000/svg" xmlns:xlink="http://www.w3.org/1999/xlink" height="260.6" preserveAspectRatio="xMidYMid meet" version="1.0" viewBox="94.5 119.7 310.9 260.6" width="310.9" zoomAndPan="magnify"><g><g id="change1_1"><path d="M250,130.267c83.974,0,152.386,62.493,155.357,140.632c0.067-1.758,0.113-3.522,0.113-5.295 c0-80.593-69.606-145.927-155.47-145.927S94.53,185.01,94.53,265.603c0,1.774,0.046,3.537,0.113,5.295 C97.614,192.76,166.026,130.267,250,130.267z" fill="#1F8FCF"/></g><g><g fill="#0397C7" id="change2_1"><path d="M249.968,250.087c-31.286-65.853-76.9-78.2-76.9-78.2c56.445,42.334,76.9,186.387,76.9,186.387 s20.455-144.053,76.901-186.387C326.869,171.887,281.255,184.234,249.968,250.087z"/><path d="M279.883,196.974l-23.127-15.483h-36.65l16.787,9.405c-2.768,3.101-4.465,7.179-4.465,11.664 c0,9.688,7.853,17.541,17.541,17.541c9.688,0,17.541-7.853,17.541-17.541c0-1.955-0.334-3.829-0.924-5.586h5.383l-1.101,20.187 l4.508-2.744l-1.272-17.443H279.883z"/></g><g id="change3_1"><path d="M207.954,227.744l-6.272-10.975c0,0-14.895-5.88-34.886-1.96v112.499c0,0,39.59-6.272,78.004,26.655 c0,0-18.815-30.575-65.069-35.67v-94.86C179.731,223.432,193.451,222.257,207.954,227.744z" fill="#E24F01"/></g><g id="change4_1"><path d="M158.074,232.448l-12.641,5.586v112.303c0,0,52.624-18.913,95.252,3.626c0,0-24.401-23.617-81.728-17.149 L158.074,232.448z" fill="#F60"/></g><g id="change5_1"><path d="M138.965,363.272l-0.588-101.719l-12.641,5.88v112.891c0,0,45.274-32.632,104.071-28.223 C229.807,352.1,186.885,337.989,138.965,363.272z" fill="#FFAA01"/></g></g><g><g id="change3_2"><path d="M291.637,227.744l6.272-10.975c0,0,14.895-5.88,34.886-1.96v112.499c0,0-39.59-6.272-78.004,26.655 c0,0,18.815-30.575,65.069-35.67v-94.86C319.86,223.432,306.14,222.257,291.637,227.744z" fill="#E24F01"/></g><g id="change4_2"><path d="M341.517,232.448l12.641,5.586v112.303c0,0-52.624-18.913-95.252,3.626c0,0,24.401-23.617,81.728-17.149 L341.517,232.448z" fill="#F60"/></g><g id="change5_2"><path d="M360.626,363.272l0.588-101.719l12.641,5.88v112.891c0,0-45.274-32.632-104.071-28.223 C269.784,352.1,312.706,337.989,360.626,363.272z" fill="#FFAA01"/></g></g></g></svg>