<?xml version="1.0" encoding="UTF-8"?><svg xmlns="http://www.w3.org/2000/svg" xmlns:xlink="http://www.w3.org/1999/xlink" height="600.5" preserveAspectRatio="xMidYMid meet" version="1.0" viewBox="691.8 699.8 616.4 600.5" width="616.4" zoomAndPan="magnify"><g><g id="change1_1"><path d="M 944.664062 939.699219 C 944.664062 970.261719 969.4375 995.03125 999.996094 995.03125 C 1030.558594 995.03125 1055.328125 970.261719 1055.328125 939.699219 C 1055.328125 909.140625 1030.558594 884.371094 999.996094 884.371094 C 969.4375 884.371094 944.664062 909.140625 944.664062 939.699219" fill="#393536"/></g><g id="change2_1"><path d="M 999.996094 732 C 864.457031 732 753.617188 837.660156 745.3125 971.109375 C 744.980469 965.769531 744.792969 960.390625 744.792969 954.96875 C 744.792969 814.019531 859.050781 699.769531 999.996094 699.769531 C 1140.941406 699.769531 1255.199219 814.019531 1255.199219 954.96875 C 1255.199219 960.390625 1255.019531 965.769531 1254.679688 971.109375 C 1246.378906 837.660156 1135.539062 732 999.996094 732" fill="#918f8f"/></g><g id="change1_2"><path d="M 876.445312 870.640625 L 999.996094 807.101562 L 1123.550781 870.640625 L 1060.171875 878.96875 L 1060.171875 932.589844 L 939.828125 932.589844 L 939.828125 878.96875 L 924.789062 877 L 924.789062 910.519531 C 924.789062 913.058594 922.730469 915.121094 920.1875 915.121094 C 917.644531 915.121094 915.582031 913.058594 915.582031 910.519531 L 915.582031 875.789062 L 876.445312 870.640625" fill="#393536"/></g><g id="change1_3"><path d="M 962.941406 1230.089844 C 963.011719 1222.550781 963.3125 1217.269531 963.519531 1215.121094 C 969.804688 1146.71875 994.980469 1081.199219 1036.171875 1025.671875 C 1065.480469 986.148438 1150.851562 913.789062 1180.871094 828.339844 C 1175.070312 895.101562 1136.25 959.359375 1089.769531 1025.671875 C 1042.441406 1093.191406 1095.378906 1215.949219 1095.378906 1215.949219 C 1204.128906 1176.859375 1281.910156 1072.800781 1281.910156 950.589844 C 1281.910156 888.339844 1261.710938 830.820312 1227.550781 784.179688 C 1277.628906 838.980469 1308.199219 911.941406 1308.199219 992.03125 C 1308.199219 1136.710938 1208.519531 1258.089844 1074.089844 1291.269531 C 1050.359375 1297.128906 1025.539062 1300.230469 999.996094 1300.230469 C 989.359375 1300.230469 978.863281 1299.691406 968.503906 1298.648438 C 963.644531 1271.050781 962.792969 1245.710938 962.941406 1230.089844" fill="#393536"/></g><g id="change3_1"><path d="M 940.660156 1229.871094 C 940.734375 1221.839844 941.0625 1215.878906 941.339844 1212.980469 C 946.226562 1159.820312 961.914062 1108.238281 987.234375 1061.238281 C 980.128906 1049 972.328125 1037.121094 963.835938 1025.671875 C 934.515625 986.160156 849.148438 913.800781 819.128906 828.351562 C 824.929688 895.101562 863.742188 959.359375 910.226562 1025.671875 C 957.5625 1093.199219 904.625 1215.949219 904.625 1215.949219 C 795.867188 1176.859375 718.09375 1072.808594 718.09375 950.601562 C 718.09375 888.339844 738.285156 830.820312 772.449219 784.179688 C 722.363281 838.980469 691.804688 911.941406 691.804688 992.039062 C 691.804688 1136.710938 791.476562 1258.089844 925.90625 1291.269531 C 932.320312 1292.851562 938.816406 1294.230469 945.386719 1295.398438 C 941.035156 1267.390625 940.539062 1242.660156 940.660156 1229.871094" fill="#f68712"/></g></g></svg>